STARTFONT 2.1
COMMENT
COMMENT Converted from OpenType font "warehous.ttf" by "otf2bdf 3.0".
COMMENT
FONT -FreeType-Warehouse-Medium-R-Normal--55-400-100-100-P-238-ISO10646-1
SIZE 40 100 100
FONTBOUNDINGBOX 58 80 -4 -19
STARTPROPERTIES 19
FOUNDRY "FreeType"
FAMILY_NAME "Warehouse"
WEIGHT_NAME "Medium"
SLANT "R"
SETWIDTH_NAME "Normal"
ADD_STYLE_NAME ""
PIXEL_SIZE 55
POINT_SIZE 400
RESOLUTION_X 100
RESOLUTION_Y 100
SPACING "P"
AVERAGE_WIDTH 238
CHARSET_REGISTRY "ISO10646"
CHARSET_ENCODING "1"
FONT_ASCENT 43
FONT_DESCENT 12
COPYRIGHT "totally whipass fonts by AprilSkies. beech."
_OTF_FONTFILE "warehous.ttf"
_OTF_PSNAME "Warehouse Regular"
ENDPROPERTIES
CHARS 181
STARTCHAR 0020
ENCODING 32
SWIDTH 504 0
DWIDTH 28 0
BBX 0 0 0 0
BITMAP
ENDCHAR
STARTCHAR 0021
ENCODING 33
SWIDTH 198 0
DWIDTH 11 0
BBX 9 40 1 1
BITMAP
0200
0300
0300
0780
0780
0780
0F80
0F80
0F80
0F80
0F80
1F00
1F00
1F00
1F00
1F00
3F00
3E00
3E00
3E00
7E00
7E00
7C00
7C00
7C00
7C00
7800
3000
0000
0000
3C00
7E00
7E00
FE00
FE00
FC00
FC00
FC00
7800
7000
ENDCHAR
STARTCHAR 0023
ENCODING 35
SWIDTH 558 0
DWIDTH 31 0
BBX 30 36 0 3
BITMAP
000000C0
000001E0
0000C1E0
0003C3E0
0003C3E0
0007E7C0
0007E7C0
0007E7C0
0007EFC0
0007EFC0
001FFFFC
03FFFFFC
07FFFFFC
07FFFFF8
07FFFFF8
0FFFFFF8
0FFFFFF8
0FFFFFF0
0FFFFFF0
07FFFFF0
07FFFFE0
1FFFFFE0
3FFFFFC0
7FFFFF80
7FFFFE00
FFFFF800
FFFFF800
FFFFF800
7FF8F000
78F0F000
00F0F000
00F0E000
00F0E000
00E0C000
00E00000
00C00000
ENDCHAR
STARTCHAR 0024
ENCODING 36
SWIDTH 414 0
DWIDTH 23 0
BBX 21 47 1 -3
BITMAP
000800
001C00
003C00
003C00
003C00
003C00
007F80
007FE0
01FFF0
03FFF8
07FFF0
0FFFF0
1FFFF8
3FFFF8
3FFFF8
3FF8F8
3FF878
3FFE30
3FFF00
3FFF80
1FFFC0
1FFFE0
07FFE0
00FFE0
00FFF0
00FFF0
00FFF0
30FBF0
7CF9F0
FFF9E0
FFF9E0
FFFFE0
FFFFE0
FFFFE0
FFFFC0
3FFFC0
0FFF80
03FE00
00F800
007C00
007C00
007C00
007C00
003C00
003C00
001C00
000800
ENDCHAR
STARTCHAR 0025
ENCODING 37
SWIDTH 630 0
DWIDTH 35 0
BBX 33 41 1 0
BITMAP
00E0000000
03FF000180
07FFFFFF80
0FFFFFFF80
1FFFFFFF80
3FFFFFFF80
7FFFFFFF00
7FFFFFFF00
7FFFFFFF00
FFFFFFFE00
FFF003FC00
FFF007F800
FFF00FF000
FFF01FE000
FFE03FC000
FFE07F8000
7FC0FF0000
3F01FE0000
0003FC0000
0003FC0000
0007F81000
000FF0FC00
001FE1FE00
003FC3FE00
003F87FF00
007F0FFF00
00FE0FFF00
01FC1FFF00
01F81FFF00
01F03FFF00
03E03FFE00
03C03FFE00
07C03FFE00
07C07FFC00
07807FFC00
07807FF800
03007FF000
00007FF000
00003FE000
00003F8000
00001F0000
ENDCHAR
STARTCHAR 0026
ENCODING 38
SWIDTH 558 0
DWIDTH 31 0
BBX 31 38 0 0
BITMAP
003C0000
007E0000
00FE0000
01FF0000
03FF0000
03FF0000
07FE0000
07FE0000
0FFE0000
0FFE0000
0FFC0000
0FFC0000
0FF80000
0FF80000
0FF01804
0FF03C0E
07F07E3E
07F87FFE
0FF8FFFC
0FFCFFFC
1FFCFFFC
1FFEFFF8
3FFFFFF0
3FFFFFE0
3E7FFFC0
7C7FFF00
7C3FF800
7C3FF800
FC1FF800
FE1FF800
FFFFFC00
FFFFFC00
7FFFFC00
7FFFFC00
7FFFF800
3FFCF800
3FF87800
0FC02000
ENDCHAR
STARTCHAR 0027
ENCODING 39
SWIDTH 234 0
DWIDTH 13 0
BBX 11 18 1 26
BITMAP
0040
00E0
01E0
03E0
07E0
0FE0
1FE0
3FC0
7FC0
FF80
FF00
FF00
FE00
FE00
FC00
7C00
7C00
3800
ENDCHAR
STARTCHAR 0028
ENCODING 40
SWIDTH 414 0
DWIDTH 23 0
BBX 21 45 1 -3
BITMAP
000070
0000F8
0001F8
0003F0
0007F0
000FF0
001FF0
003FF0
003FE0
007FC0
00FF00
00FE00
01FC00
03F800
03F000
07F000
07E000
07C000
0FC000
0F8000
1F0000
1F0000
3E0000
3E0000
3C0000
7C0000
7C0000
7C0000
F80000
F80000
F80000
FC0000
FC0000
FC0000
FE0000
FF0000
FFE000
FFFE00
7FFE00
7FFE00
3FFE00
1FFC00
0FFC00
07FC00
01F000
ENDCHAR
STARTCHAR 0029
ENCODING 41
SWIDTH 288 0
DWIDTH 16 0
BBX 14 41 1 0
BITMAP
0C00
1F00
1F80
3FC0
3FE0
3FE0
3FF0
3FF0
1FF0
0FF8
07F8
03F8
01FC
00FC
007C
007C
007C
003C
003C
003C
003C
003C
003C
003C
007C
007C
00F8
01F8
01F8
03F0
07F0
0FE0
1FE0
1FC0
3FC0
7F80
7F00
FE00
F800
F000
C000
ENDCHAR
STARTCHAR 002A
ENCODING 42
SWIDTH 576 0
DWIDTH 32 0
BBX 30 32 1 7
BITMAP
00030000
00038000
0007C000
000FC000
000FC000
000FC000
001FC000
001FC000
1FFFE000
3FFFE0F8
7FFFFFFC
7FFFFFF8
FFFFFFF8
FFFFFFF0
FFFFFFF0
FFFFFFE0
7FFFFFC0
1FFFFFC0
0FFFFF00
07FFFE00
07FFF800
07FFF800
07FFF800
07FFF800
07FFF800
0FFDF800
0FF0F000
0FE0F000
0FE04000
0F800000
0F000000
06000000
ENDCHAR
STARTCHAR 002B
ENCODING 43
SWIDTH 432 0
DWIDTH 24 0
BBX 21 26 1 1
BITMAP
003C00
007E00
007E00
00FE00
00FF00
00FE00
00FF00
1FFFF0
3FFFF8
7FFFF0
FFFFF0
FFFFE0
FFFFE0
FFFFC0
FFFF80
71FC00
01FC00
01FC00
01FC00
01FC00
01F800
01F800
01F800
01F800
01F000
00E000
ENDCHAR
STARTCHAR 002C
ENCODING 44
SWIDTH 198 0
DWIDTH 11 0
BBX 9 17 1 -7
BITMAP
0C00
1F00
3F00
3F00
7F80
7F80
7F80
3F00
3F00
3F00
3E00
7E00
FC00
FC00
F800
F000
4000
ENDCHAR
STARTCHAR 002D
ENCODING 45
SWIDTH 378 0
DWIDTH 21 0
BBX 20 10 0 10
BITMAP
3C0000
3FFFE0
7FFFF0
7FFFE0
FFFFE0
FFFFC0
FFFFC0
FFFF80
FFFF00
FF8000
ENDCHAR
STARTCHAR 002E
ENCODING 46
SWIDTH 198 0
DWIDTH 11 0
BBX 8 10 1 0
BITMAP
1C
3F
3F
7F
7F
FF
7E
7E
7C
38
ENDCHAR
STARTCHAR 002F
ENCODING 47
SWIDTH 468 0
DWIDTH 26 0
BBX 24 42 1 1
BITMAP
00001C
00003E
00007F
00007F
0000FF
0000FF
0000FE
0000FE
0000FE
0001FC
0003F8
0003F8
0007F0
0007E0
000FE0
001FC0
001F80
003F80
003F00
007E00
007E00
00FC00
00F800
01F800
01F000
03F000
07E000
07E000
0FC000
0F8000
1F8000
1F0000
3F0000
7E0000
7E0000
7C0000
FC0000
F80000
F80000
F00000
F00000
E00000
ENDCHAR
STARTCHAR 0030
ENCODING 48
SWIDTH 576 0
DWIDTH 32 0
BBX 32 38 0 0
BITMAP
00001C00
0000FF00
0003FF80
0007FFC0
001FFFC0
003FFFF0
007FFFF8
00FFFFFC
01FFFFFE
03FFFFFE
07FF3FFF
07F81FFF
0FF00FFF
1FE001FF
1F8001FF
3F8000FF
3F0000FF
7F00007E
7F00007E
7F0000FE
7F0000FC
7E0000FC
FF0001F8
FF0001F8
FF0003F0
FF0007F0
FF800FE0
7F801FC0
7FC07FC0
7FE1FF80
7FFFFF00
3FFFFE00
3FFFFC00
1FFFF800
1FFFF000
0FFFC000
03FF0000
00FC0000
ENDCHAR
STARTCHAR 0031
ENCODING 49
SWIDTH 342 0
DWIDTH 19 0
BBX 18 42 0 -1
BITMAP
000700
000F00
001F80
003F80
00FF80
01FF00
03FF00
07FF00
07FE00
07FE00
0FFE00
0FFE00
07FE00
07FE00
007E00
007C00
007C00
00FC00
00FC00
00FC00
00FC00
00FC00
00FC00
00FC00
00F800
00F800
01F800
01F800
01F800
01F800
01F800
03FF00
3FFFC0
3FFFC0
7FFFC0
FFFF80
FFFF80
FFFF80
FFFF00
7FFC00
7F8000
700000
ENDCHAR
STARTCHAR 0032
ENCODING 50
SWIDTH 594 0
DWIDTH 33 0
BBX 32 43 0 -2
BITMAP
00007E00
0003FF80
001FFF80
003FFF80
003FFFC0
007FFFC0
00FFFFC0
00FFFFC0
00FFFFC0
00FF1F80
00FC1F80
00701F80
00003F00
00003F00
00007E00
00007E00
0000FC00
0000F800
0001F800
0003F000
0003F000
0007E000
000FC000
000FC000
001F8000
003F0000
007F0000
007E0000
00FC0000
01F8000F
03F8FFFF
07FFFFFF
07FFFFFF
0FFFFFFE
1FFFFFFE
3FFFFFFC
7FFFFFF8
7FFFE000
FFF80000
FF800000
7E000000
7C000000
70000000
ENDCHAR
STARTCHAR 0033
ENCODING 51
SWIDTH 576 0
DWIDTH 32 0
BBX 29 36 1 0
BITMAP
01F00000
07FFFFE0
07FFFFF8
07FFFFF8
0FFFFFF8
0FFFFFF8
0FFFFFF0
0FFFFFF0
0FFFFFE0
0FFFFFC0
0001FF80
0000FE00
0001FC00
0003F800
0007FE00
0007FF80
000FFFC0
001FFFE0
001FFFE0
001FFFF0
001FFFF0
001FFFF0
00001FE0
00000FE0
00001FC0
00007FC0
0003FF80
001FFF00
00FFFE00
1FFFFC00
3FFFF000
7FFFC000
FFFF0000
FFF80000
FFC00000
FC000000
ENDCHAR
STARTCHAR 0034
ENCODING 52
SWIDTH 504 0
DWIDTH 28 0
BBX 26 40 1 0
BITMAP
00001C00
01C07C00
03C07C00
0FC0FC00
0FC0FC00
1FC0FC00
1FC0FC00
0FC0FC00
1FC0FC00
1F80FC00
1F80FC00
1F80FC00
1F00FC00
3F00F800
3F00F800
3E01F800
7E7FF800
7FFFFFC0
7FFFFFC0
FFFFFFC0
FFFFFFC0
FFFFFF80
FFFFFF80
FFFFFF00
FF01F800
0003F800
0003F800
0003F800
0003F800
0003F800
0003F800
0001F800
0001F800
0001F800
0001F800
0001F800
0001F000
0001E000
0001E000
0000C000
ENDCHAR
STARTCHAR 0035
ENCODING 53
SWIDTH 486 0
DWIDTH 27 0
BBX 25 38 1 0
BITMAP
00000300
000FFF80
001FFF80
007FFF80
007FFF80
007FFF00
007FFF00
00FFFF00
007FFE00
007E3C00
007E0000
007E0000
00FE0000
00FE0000
00FC0000
00FC0000
00FC0000
00FC0000
01FF8000
01FFE000
01FFF000
01FFF800
01FFFC00
01FFFC00
03FFFE00
03FFFE00
01C7FE00
0003FE00
0001FE00
0800FE00
3C07FC00
7FFFFC00
7FFFF800
FFFFF000
FFFFE000
FFFFC000
7FFF0000
1FFC0000
ENDCHAR
STARTCHAR 0036
ENCODING 54
SWIDTH 396 0
DWIDTH 22 0
BBX 19 36 1 0
BITMAP
000C00
001E00
007F00
00FF00
00FE00
01FE00
01FE00
01FC00
03F800
03F000
07F000
07E000
0FC000
0FC000
1F8000
1F8000
3F8000
3F0000
7F0000
7E0000
7E0780
FE1FE0
FE7FE0
FFFFE0
FFFFE0
FFFFE0
FFFFE0
FFEFC0
FFFF80
FFFF00
FFFE00
FFFC00
FFF800
7FF000
3FC000
0F0000
ENDCHAR
STARTCHAR 0037
ENCODING 55
SWIDTH 630 0
DWIDTH 35 0
BBX 33 44 1 -2
BITMAP
1F80000000
3FFF800000
7FFFFF0000
FFFFFFF000
FFFFFFFF00
FFFFFFFF80
FFFFFFFF80
FFFFFFFF80
FFFFFFFF80
FF800FFF80
FC0001FF00
780000FE00
200001FE00
000001FC00
000001F800
000003F000
000003F000
000003E000
000007C000
000007C000
00000F8000
00000F8000
000C1FF000
003FFFF000
003FFFE000
007FFFE000
007FFFE000
00FFFFC000
00FFFF8000
007FFE0000
007FF80000
003FE00000
0003E00000
0007C00000
0007C00000
000F800000
000F800000
000F800000
001F800000
001F000000
001F000000
001E000000
001E000000
001C000000
ENDCHAR
STARTCHAR 0038
ENCODING 56
SWIDTH 504 0
DWIDTH 28 0
BBX 26 41 1 0
BITMAP
0003F800
000FFE00
003FFF00
00FFFF80
01FFFFC0
03FFFFC0
07FFFFC0
07FFFFC0
0FFFFF80
1FE07F80
1FC01F80
1FE00F00
1FF01F00
1FF83E00
1FFE7E00
1FFFFC00
1FFFF800
1FFFF800
0FFFF000
07FFF800
03FFFC00
01FFFE00
00FFFE00
01FFFE00
03FFFF00
07F3FF00
0FE1FE00
0FC0FE00
1F807E00
3F007E00
7E007C00
7E007C00
7E00F800
FE00F800
FE03F000
FF0FE000
7FFFC000
7FFF8000
3FFF0000
1FFE0000
07F00000
ENDCHAR
STARTCHAR 0039
ENCODING 57
SWIDTH 558 0
DWIDTH 31 0
BBX 28 41 1 1
BITMAP
0000FC00
0003FF00
000FFF80
003FFF80
00FFFFC0
01FFFFC0
03FFFFC0
07FFFFF0
07FFFFF0
0FF87FF0
1FE01FF0
1FC01FE0
3F000FE0
3F001FC0
7E001F80
7E003F80
7E007F00
FE01FE00
FF07FE00
FFFFFC00
FFFFF800
FFFFF800
7FFFF000
7FFFE000
7FFFE000
3FEFC000
000F8000
000F8000
001F8000
001F0000
003F0000
003E0000
007E0000
007E0000
007E0000
00FE0000
00FE0000
00FC0000
00F80000
00F00000
00600000
ENDCHAR
STARTCHAR 003A
ENCODING 58
SWIDTH 216 0
DWIDTH 12 0
BBX 9 22 1 1
BITMAP
0E00
1F00
3F80
3F80
7F80
7F80
7F00
7E00
7C00
3800
0000
0000
1800
3C00
7E00
FE00
FE00
FE00
FC00
F800
F800
F000
ENDCHAR
STARTCHAR 003B
ENCODING 59
SWIDTH 216 0
DWIDTH 12 0
BBX 10 28 1 -6
BITMAP
0700
0F80
1FC0
1FC0
3FC0
3F80
3F80
3F00
3E00
1C00
0000
0000
0C00
1F00
3F80
3F80
7F80
7F80
7F00
7F00
7F00
3E00
3E00
7C00
7C00
7800
F000
6000
ENDCHAR
STARTCHAR 003C
ENCODING 60
SWIDTH 342 0
DWIDTH 19 0
BBX 16 22 1 1
BITMAP
001E
003E
003F
007F
00FF
01FE
03FE
07FC
1FF8
3FF0
7FC0
7F80
FF80
FFC0
FFF0
FFFC
7FFE
3FFE
0FFE
07FE
01FC
0078
ENDCHAR
STARTCHAR 003D
ENCODING 61
SWIDTH 414 0
DWIDTH 23 0
BBX 22 25 0 4
BITMAP
070000
0FFC00
1FFFF8
1FFFFC
1FFFFC
1FFFFC
1FFFFC
0FFFFC
0FFFFC
07FFF8
03FFF8
000000
000000
000000
0000E0
3FFFE0
7FFFE0
7FFFF0
FFFFF0
FFFFF0
FFFFE0
7FFFE0
7FFFE0
3FFFE0
1FF000
ENDCHAR
STARTCHAR 003E
ENCODING 62
SWIDTH 342 0
DWIDTH 19 0
BBX 17 23 1 0
BITMAP
1C0000
3E0000
7F0000
7F8000
FFC000
FFE000
FFF800
FFFE00
7FFF00
3FFF80
1FFF80
07FF80
03FF00
01FF00
03FE00
07F800
1FF000
3FE000
7F8000
7F0000
7E0000
780000
700000
ENDCHAR
STARTCHAR 003F
ENCODING 63
SWIDTH 396 0
DWIDTH 22 0
BBX 21 43 0 -1
BITMAP
00F800
03FE00
07FF80
0FFFE0
1FFFF0
1FFFF8
3FFFF8
3FFFF8
7F3FF8
7F0FF0
7E07E0
FE07C0
FE07C0
FC0F80
FC1F00
F81F00
603E00
003E00
007C00
007C00
007C00
00FC00
00F800
00F800
00F800
01F800
01F000
01F000
01E000
008000
000000
000000
000000
00E000
00F800
01F800
03F800
03F800
03F000
03F000
03E000
03E000
03C000
ENDCHAR
STARTCHAR 0040
ENCODING 64
SWIDTH 576 0
DWIDTH 32 0
BBX 30 44 1 -2
BITMAP
00007E00
0001FF00
0003FF80
0007FFC0
000FFFE0
001FFFE0
003FFFF0
007FFFF0
00FF0FF8
00FC03F8
01F801FC
03F001FC
03E000FC
07C1F07C
07C7F83C
079FFC3C
0FBFFC3C
0F3FFC3C
1F7FFC3C
1E7FFC38
3EFFFC38
3CFCFC78
3CFFFC78
78FFFCF0
78FFFCF0
78FFFFE0
78FFFFE0
F8FFFFC0
F87FFFC0
F83E7F80
F8007F80
F8003E00
FC003C00
FC000000
FE000030
7F0001E0
7FE01FE0
7FFFFFC0
3FFFFFC0
3FFFFF80
1FFFFF00
0FFFFC00
07FFF000
01FF8000
ENDCHAR
STARTCHAR 0041
ENCODING 65
SWIDTH 594 0
DWIDTH 33 0
BBX 28 50 2 -8
BITMAP
00000300
00000780
00000F80
00001F80
00001FC0
00001F80
00003F80
00003F80
00003F80
00003F80
00007F80
00007F80
00007F80
00007F80
0000FF80
0000FF80
0000FF80
0001FF80
0001FF80
0003FF80
0007FF80
0007FF80
000FFF80
001FDFC0
003FDFC0
007FFFC0
00FFFFC0
00FFFFC0
01FFFFC0
03FFFFC0
07FFFFE0
0FFFFFE0
3FFFFFE0
7FFFFFE0
7FFFFFE0
7FFFFFF0
7F83EFF0
FF800FF0
FF000FF0
FE000FF0
FE000FF0
FC0007F0
F80007F0
700007F0
000007E0
000007E0
000003E0
000003C0
00000380
00000100
ENDCHAR
STARTCHAR 0042
ENCODING 66
SWIDTH 594 0
DWIDTH 33 0
BBX 31 46 1 -3
BITMAP
0007F000
001FFC00
007FFE00
01FFFF00
07FFFF00
1FFFFF80
3FFFFF80
3FFFFF80
7FFFFF80
7FFFFF80
7FE07F80
FFC03F80
FF801F80
7F803F80
7F807F80
3F80FF00
3F81FF00
3F87FE00
1F8FFE00
1FFFFF00
1FFFFF80
1FFFFFE0
1FFFFFF0
1FFFFFF8
1FFFFFFC
1FFFFFFE
1FFFFFFE
1FFFFFFE
1FFFFFFE
1FF03FFC
1FE007FC
1FE003FC
1FE007FC
1FE01FF8
1FE07FF8
0FF3FFF0
1FFFFFF0
3FFFFFE0
3FFFFFC0
7FFFFF80
7FFFFE00
7FFFF800
7FFFC000
7FFF0000
7FF80000
3F000000
ENDCHAR
STARTCHAR 0043
ENCODING 67
SWIDTH 576 0
DWIDTH 32 0
BBX 29 41 2 0
BITMAP
0007E000
001FF000
003FF800
007FFC00
00FFFC00
01FFF800
03FFF800
03FFF800
07FFF800
0FFFF000
0FE7F000
1F83E000
3F81C000
3F000000
3F000000
7E000000
7E000000
7E000000
FE000000
FE000000
FE000000
FE000000
FE000000
FE000000
FE000000
FF000000
FF000000
FF800000
FF8000F0
FFC001F8
FFF80FF8
7FFFFFF0
7FFFFFF0
7FFFFFF0
3FFFFFE0
3FFFFFE0
1FFFFFC0
0FFFFF80
07FFFF00
03FFF800
007F8000
ENDCHAR
STARTCHAR 0044
ENCODING 68
SWIDTH 792 0
DWIDTH 44 0
BBX 42 48 1 -5
BITMAP
00003FC00000
0003FFF80000
000FFFFF0000
007FFFFF8000
03FFFFFFE000
0FFFFFFFF000
1FFFFFFFF800
3FFFFFFFF800
7FFFFFFFFC00
FFFFFFFFFE00
FFFE03FFFE00
FFFC007FFF00
FFFC003FFF00
FFFE000FFF80
FFFE0007FF80
FFFE0003FF80
43FE0001FFC0
03FE0001FFC0
03FF0000FFC0
01FF00007FC0
01FF00007FC0
01FF00003FC0
00FF80003F80
00FF80003F80
00FF80003F80
00FF80003F00
007FC0007F00
007FC0007E00
007FC000FE00
007FE001FC00
003FE003F800
003FE00FF000
003FF01FF000
001FF07FE000
001FF0FFC000
001FFBFF8000
000FFFFF0000
000FFFFC0000
000FFFF80000
001FFFF00000
001FFFC00000
003FFF000000
007FFE000000
007FF8000000
007FE0000000
007F00000000
007C00000000
002000000000
ENDCHAR
STARTCHAR 0045
ENCODING 69
SWIDTH 576 0
DWIDTH 32 0
BBX 29 49 2 -7
BITMAP
000000F0
000003F8
00001FF8
0000FFF0
0007FFF0
001FFFE0
00FFFFC0
03FFFFC0
0FFFFFC0
1FFFFF80
3FFFFE00
7FFFE000
FFFF0000
FFFC0000
FFE00000
FFC00000
FF800000
FF800000
7F800000
7F001F80
3F00FF80
7F0FFF80
7FFFFF80
7FFFFF00
7FFFFE00
7FFFFE00
7FFFFC00
FFFFFC00
FFFFF800
FFFFC000
FFFE0000
FFF00000
FF800000
FE000000
FE000000
FE001F80
FE01FFE0
FE0FFFE0
FEFFFFC0
FFFFFFC0
FFFFFF80
FFFFFF80
FFFFFF00
FFFFFE00
FFFFFE00
FFFF8000
FFE00000
FE000000
40000000
ENDCHAR
STARTCHAR 0046
ENCODING 70
SWIDTH 648 0
DWIDTH 36 0
BBX 33 41 1 1
BITMAP
07F8000F00
0FFFFFFF80
1FFFFFFF80
3FFFFFFF80
7FFFFFFF80
7FFFFFFF00
FFFFFFFE00
FFFFFFFC00
FFFFFFF800
FFFFFFF800
FFFFFFC000
FFC0000000
7FC0000000
7FC0000000
7FC0000000
7FC0000000
3FC0FF0000
3FFFFF8000
3FFFFF8000
3FFFFF8000
3FFFFF0000
3FFFFF0000
3FFFFE0000
3FFFFC0000
7FFFFC0000
7FFFF80000
7FFFE00000
7F80000000
7F80000000
7F80000000
7F80000000
7F80000000
7FC0000000
7FC0000000
7FC0000000
7F80000000
7F00000000
7F00000000
7E00000000
7C00000000
3800000000
ENDCHAR
STARTCHAR 0047
ENCODING 71
SWIDTH 684 0
DWIDTH 38 0
BBX 35 49 1 -7
BITMAP
000007E000
00001FF800
00007FFE00
0001FFFF00
0003FFFF80
0007FFFF00
000FFFFF00
001FFFFF00
007FFFFE00
007FFFFE00
00FFC3FC00
01FF01F800
01FC006000
03F8000000
03F8000000
07F0000000
07E0000000
0FE0000000
0FE0000000
1FC0000380
1FC03C0FE0
3FC07FFFE0
3FC0FFFFE0
3F81FFFFE0
7F81FFFFE0
7F83FFFFE0
7F83FFFFC0
7F81FFFFC0
7F81FFFFC0
FF80FFFFC0
FF807FFFC0
FFC0007FC0
FFC001FFC0
FFF01FFFC0
FFFFFFFFC0
7FFFFFFFC0
7FFFFFFFC0
7FFFFFFFC0
7FFFFFFFC0
3FFFFFFF80
3FFFFFFF80
1FFFFE7F80
0FFFE07F80
03FE007F00
0000007F00
0000007E00
0000007C00
0000007C00
0000003000
ENDCHAR
STARTCHAR 0048
ENCODING 72
SWIDTH 522 0
DWIDTH 29 0
BBX 27 43 1 -1
BITMAP
0E000000
1F000000
3F800000
7F800600
7F801F80
7F803FC0
FF803F80
FF007F80
FF007F80
FF007F80
FF007F80
FF007F80
FF007F80
FF007F80
FF007F80
7F00FF80
7F00FF80
7F80FF80
7FFEFF80
FFFFFF80
FFFFFF80
FFFFFF80
7FFFFF80
7FFFFF80
7FFFFF80
7FFFFF80
7FFFFF80
7FFFFF80
7FC0FF80
7FC07FC0
3FC07FC0
3FC07FC0
3FC07FC0
3FE07FE0
3FE07FE0
3FE07FC0
3FE03F80
3FC03F80
3F803E00
3F803C00
3E001000
3C000000
18000000
ENDCHAR
STARTCHAR 0049
ENCODING 73
SWIDTH 414 0
DWIDTH 23 0
BBX 20 44 1 -2
BITMAP
03FF80
1FFFC0
3FFFC0
7FFFC0
7FFFC0
FFFF80
FFFF00
FFFE00
FFFE00
FFFC00
3FFC00
0FFC00
07FC00
07FC00
07FC00
07FC00
07FC00
07FC00
03FC00
03FC00
03FE00
03FE00
03FE00
03FE00
03FE00
03FE00
03FE00
01FE00
01FE00
01FE00
01FF00
01FF00
03FF00
07FF00
0FFFC0
1FFFF0
3FFFF0
3FFFE0
7FFFC0
7FFFC0
7FFF80
7FFF00
3FFE00
1FF800
ENDCHAR
STARTCHAR 004A
ENCODING 74
SWIDTH 594 0
DWIDTH 33 0
BBX 31 50 1 -8
BITMAP
000000F8
0FFFFFFC
1FFFFFFE
3FFFFFFC
7FFFFFFC
7FFFFFF8
FFFFFFF8
FFFFFFF0
FFFFFFE0
FFFFFFC0
7C0FFC00
000FFC00
0007FC00
0007FC00
0007FC00
0007FE00
0007FE00
0003FE00
0003FE00
0003FE00
0003FE00
0003FF00
0001FF00
0001FF00
0001FF00
0001FF00
0001FF80
0001FF80
0000FF80
0000FF80
0000FF80
0000FFC0
0000FFC0
00007FC0
00007FC0
00007FC0
00007FC0
00007FC0
00007FC0
00003FC0
00003FC0
00007FC0
00FFFFC0
03FFFF80
03FFFF80
07FFFF00
0FFFFE00
0FFFFC00
0FFFF000
0FFFC000
ENDCHAR
STARTCHAR 004B
ENCODING 75
SWIDTH 558 0
DWIDTH 31 0
BBX 28 44 1 -2
BITMAP
1E000000
3F000000
7F800600
7F800F80
FF801FC0
FF803FC0
FF803F80
FF807F80
FF807F00
FF80FF00
FF00FE00
7F81FC00
7F83FC00
7F83F800
7F87F000
7F8FE000
3F9FC000
3F9FC000
3FFF8000
3FFF0000
3FFF0000
3FFF0000
3FFF0000
3FFF8000
3FFF8000
3FFFC000
3FFFE000
3FFFF000
3FFFF800
3FFFFC00
3FFFFE00
3FFFFF80
3FDFFFE0
3FCFFFF0
3FCFFFF0
3FC7FFF0
3FC3FFE0
3FC1FFE0
3F80FFE0
3F803FC0
1F001F80
1E000F00
1C000600
10000000
ENDCHAR
STARTCHAR 004C
ENCODING 76
SWIDTH 504 0
DWIDTH 28 0
BBX 25 42 1 0
BITMAP
01C00000
03F00000
07F00000
0FF00000
0FF00000
1FF00000
1FF00000
1FF00000
1FE00000
1FE00000
1FE00000
1FE00000
1FE00000
1FE00000
1FC00000
1FC00000
1FC00000
1FC00000
1FC00000
3F800000
3F800000
3F800000
3F800000
3F800000
3F800000
3F800000
7F000000
7F000000
7F000000
7F000000
7F000000
7F000000
7F7FFF00
7FFFFF80
7FFFFF80
FFFFFF00
FFFFFF00
FFFFFE00
FFFFFE00
FFFFFC00
FFFFF800
1CFFF000
ENDCHAR
STARTCHAR 004D
ENCODING 77
SWIDTH 738 0
DWIDTH 41 0
BBX 38 49 1 -7
BITMAP
0000001E00
0001C03E00
0003C03E00
0007E07E00
0007E0FE00
000FE0FE00
000FE1FF00
000FE0FF00
001FE0FF00
001FC0FF00
001FC0FF00
001FC0FF00
001FC0FF00
001FC0FF00
001FC1FF00
003FC1FF00
003FC1FF00
003FC1FF00
003FE3FF00
003FE3FF00
007FE3FF00
007FE7FF80
007FE7FF80
00FFE7FF80
00FFEFFF80
00FFFFFF80
01FFFFFF80
01FFFFFF80
03FFFFFFC0
07FFFFFFC0
0FFFFF3FC0
1FEFFF3FC0
3FC7FE3FE0
7FC7FE3FE0
7F87FE3FE0
7F87FC1FF0
FF03FC1FF0
FF03F81FF8
FE03F81FF8
7E03F00FFC
7C01F00FFC
7001E00FF8
00008007F8
00000007F0
00000007F0
00000003E0
00000003E0
0000000380
0000000100
ENDCHAR
STARTCHAR 004E
ENCODING 78
SWIDTH 612 0
DWIDTH 34 0
BBX 30 48 1 -5
BITMAP
00000038
0000007C
000000FC
000001FC
000003FC
000003FC
002003FC
00F803F8
01F803F8
03FC03F8
03FC03F8
07FC03F8
07FC03F8
07FC03F8
07FC03F8
07FC03F8
07FE03F8
07FE03F0
07FE03F0
07FE03F0
07FE07F0
07FE07F0
07FE07F0
0FFF07F0
0FFF07E0
0FFF0FE0
0FFF0FE0
0FFF0FE0
0FFF8FE0
0FFF8FC0
1FFF9FC0
1FFFDFC0
1FFFDFC0
1FFFFF80
3FFFFF80
3F7FFF80
3F7FFF00
7FBFFF00
7F3FFE00
FF3FFE00
FE1FFC00
FE1FFC00
FE0FF800
FC0FF800
F807F000
7007F000
0003E000
00018000
ENDCHAR
STARTCHAR 004F
ENCODING 79
SWIDTH 720 0
DWIDTH 40 0
BBX 37 39 1 0
BITMAP
00003C0000
0000FF0000
0003FFC000
0007FFF000
001FFFFC00
003FFFFF80
007FFFFFC0
00FFFFFFE0
01FFFFFFE0
03FFFFFFF0
07FC7FFFF0
0FF83FFFF0
1FE03FFFF0
1FC01C7FF8
3FC0003FF8
3F80001FF8
3F80000FF8
7F80000FF8
7F80000FF0
7F00000FF0
FF00000FF0
FF00000FF0
FF80000FE0
FF80000FE0
FF80001FC0
FFC0003F80
FFC0007F80
FFE001FF00
FFF00FFE00
FFF87FFC00
7FFFFFF800
7FFFFFF000
7FFFFFC000
3FFFFF8000
3FFFFE0000
1FFFF80000
0FFFE00000
07FF800000
00FC000000
ENDCHAR
STARTCHAR 0050
ENCODING 80
SWIDTH 576 0
DWIDTH 32 0
BBX 29 42 1 0
BITMAP
000FF800
00FFFF00
03FFFFC0
07FFFFE0
1FFFFFF0
3FFFFFF0
7FFFFFF8
7FFFFFF8
FFFFFFF8
FFFFFFF8
FFE01FF0
FFC007F0
FFC003F0
7FC007E0
3FC00FE0
1FC01FC0
1FC03F80
1FC0FF80
1FC1FF00
1FC7FE00
1F9FFC00
1FFFF800
1FFFE000
1FFFC000
3FFF0000
3FFE0000
3FF80000
3FE00000
3FC00000
3F800000
1F800000
1F800000
1F800000
1F800000
1F800000
1F800000
1F800000
1F000000
1F000000
1E000000
1E000000
0C000000
ENDCHAR
STARTCHAR 0051
ENCODING 81
SWIDTH 612 0
DWIDTH 34 0
BBX 31 52 0 -10
BITMAP
0000E000
0003F000
0007F800
000FFC00
001FFC00
003FFF00
007FFFC0
00FFFFE0
01FFFFF0
03FFFFF8
03FFFFFC
07FFFFFC
0FFFFFFC
0FFC1FFC
1FF803FC
3F3001F8
3F0001F8
3E0001F8
7E0001F8
7E0001F0
7E0001F0
7E0003F0
FE00E3E0
FE01FBE0
FE01FFC0
FE03FFC0
FE07FF80
FE07FF00
FF07FF00
FF07FE00
FF83FC00
7FE3F800
7FFFF800
7FFFF000
7FFFF000
3FFFF000
3FFFF800
1FFFF800
1FFFF800
07FBFC00
03E3FC00
0003FE00
0001FE00
0001FFBE
0001FFFE
0000FFFE
0000FFFC
00007FFC
00007FFC
00003FF8
00001FF0
00000FE0
ENDCHAR
STARTCHAR 0052
ENCODING 82
SWIDTH 558 0
DWIDTH 31 0
BBX 29 41 0 1
BITMAP
003E0000
007FE000
01FFF000
03FFF000
07FFF800
0FFFF800
0FFFF800
1FFFF800
3FFFF800
3FFFF800
7FC7F800
7FC1F000
FFC1F000
FFC3F000
FFC7E000
7FFFE000
7FFFC000
3FFF8000
1FFF8000
1FFFC000
1FFFE000
1FFFF000
0FFFF800
0FFFF800
0FFFFC00
0FFFFE00
0FFFFF00
0FEFFF80
0FE7FFC0
0FE3FFE0
0FE1FFF0
0FE0FFF8
0FE07FF8
0FE03FF0
0FE01FF0
07E00FF0
07E00FE0
07C007E0
07C003C0
07800180
03000000
ENDCHAR
STARTCHAR 0053
ENCODING 83
SWIDTH 540 0
DWIDTH 30 0
BBX 27 39 1 1
BITMAP
001F80C0
003FE3E0
00FFFFE0
03FFFFE0
07FFFFE0
0FFFFFE0
1FFFFFC0
3FFFFFC0
7FFFFF80
7FFFFF80
7F87FF00
FFC0FF00
FFF87E00
FFFE3E00
7FFFBC00
7FFFF800
3FFFF000
1FFFF800
07FFFC00
00FFFE00
003FFE00
001FFF00
0007FF00
0001FF00
0000FF00
0000FF00
00007F00
07007E00
3F007E00
3F00FC00
7F03FC00
FFFFF800
FFFFF800
FFFFF000
FFFFE000
FFFFC000
7FFF8000
1FFF0000
07F00000
ENDCHAR
STARTCHAR 0054
ENCODING 84
SWIDTH 828 0
DWIDTH 46 0
BBX 43 41 1 1
BITMAP
00000003FFC0
00007FFFFFE0
3FFFFFFFFFE0
7FFFFFFFFFE0
7FFFFFFFFFC0
FFFFFFFFFFC0
FFFFFFFFFF80
FFFFFFFFFF00
FFFFFFFFFF00
FFFFFFC00E00
FFC3F8000000
4003F8000000
0003F8000000
0003F0000000
0003F0000000
0003F0000000
0003F0000000
0003F0000000
0003F0000000
0003F0000000
0003F0000000
0003F0000000
0003F0000000
0003F8000000
0003F8000000
0003F8000000
0003F8000000
0003F8000000
0003F8000000
0001FC000000
0001FC000000
0001FC000000
0001FC000000
0001FE000000
0001FC000000
0001FC000000
0000FC000000
0000F8000000
0000F8000000
0000F0000000
0000E0000000
ENDCHAR
STARTCHAR 0055
ENCODING 85
SWIDTH 540 0
DWIDTH 30 0
BBX 27 35 1 1
BITMAP
00000380
078007C0
0FC007C0
1F800FC0
1F800FC0
3F801FC0
3F801FC0
3F801FC0
3F001F80
3F001F80
3F001F80
3F003F80
3E003F80
7E003F80
7E003F80
7E003F80
7E003F00
7E007F00
7E007F00
FE00FF80
FE01FF80
FE01FF80
FE03FF80
FF07FF80
7F0FFFC0
7F3FBFC0
7FFF3FE0
7FFE1FE0
7FFC1FC0
7FFC1F80
3FF81F80
3FF00F00
1FE00F00
1FC00400
0F000000
ENDCHAR
STARTCHAR 0056
ENCODING 86
SWIDTH 648 0
DWIDTH 36 0
BBX 34 47 1 -5
BITMAP
0000000700
0000000FC0
0F80003FC0
1FC0007F80
3FC0007F80
7FC000FF00
7FC000FF00
FFE000FF00
FFE000FE00
FFE000FE00
FFE000FE00
7FE000FC00
7FE000FC00
7FF001FC00
3FF001F800
3FF001F800
3FF803F800
1FF803F000
1FF803F000
1FFC07F000
1FFC07E000
0FFC07E000
0FFE0FE000
0FFE0FC000
07FF1FC000
07FF1FC000
07FF3F8000
03FFBF8000
03FFBF8000
03FFFF0000
01FFFF0000
01FFFE0000
00FFFE0000
00FFFE0000
00FFFC0000
007FFC0000
007FFC0000
003FFC0000
003FF80000
003FF80000
001FF00000
001FF00000
000FE00000
000FE00000
0007C00000
0007800000
0006000000
ENDCHAR
STARTCHAR 0057
ENCODING 87
SWIDTH 846 0
DWIDTH 47 0
BBX 45 42 1 0
BITMAP
000000000070
0000000001F0
0F00000001F0
3F80000003F0
7F80000007F0
7F8000000FF8
FF8000000FF8
FF8000000FF8
FF8000000FF0
FF8007000FF0
FF800F8007F0
FF800FC007F0
FFC01FC007F0
7FC03FE007F0
7FC03FE007F0
7FC07FE00FE0
7FC07FE00FE0
7FC0FFE00FE0
7FC0FFE00FC0
7FC0FFE01FC0
7FE1FFE01FC0
7FE1FFE01F80
3FE3FFF03F80
3FE3FFF03F00
3FE7FFF03F00
3FF7FFF87E00
3FFFFFF87E00
3FFFDFFCFC00
1FFF8FFCFC00
1FFF8FFFF800
1FFF0FFFF800
1FFF0FFFF000
0FFE07FFF000
0FFE07FFE000
0FFC03FFC000
07FC03FFC000
07F801FF8000
07F801FF0000
03F000FE0000
03E0007C0000
01E000380000
018000000000
ENDCHAR
STARTCHAR 0058
ENCODING 88
SWIDTH 630 0
DWIDTH 35 0
BBX 32 41 1 1
BITMAP
00000018
0000007C
060000FE
0FC001FC
1FE001FC
3FE003FC
7FF003F8
7FF007F8
7FF807F0
7FFC0FE0
FFFE0FE0
7FFE1FC0
7FFF3F80
7FFFFF00
3FFFFF00
1FFFFE00
0FFFFC00
07FFFC00
03FFFC00
01FFFE00
00FFFF00
007FFF80
007FFFC0
003FFFE0
001FFFF0
003FFFF8
003FFFFC
007FFFFE
007FFFFF
00FEFFFF
01FC7FFF
03FC3FFF
03F80FFE
07F807FE
07F007FC
0FE007F8
0FE003F0
0FC001F0
0FC000C0
0F800000
0F000000
ENDCHAR
STARTCHAR 0059
ENCODING 89
SWIDTH 738 0
DWIDTH 41 0
BBX 36 54 3 -12
BITMAP
0C00000000
1F80000000
3F80000000
FFC0000000
FFC0000000
FFC0000000
FFC0000000
FFE00001F0
FFE00003F0
FFF00007F0
FFF0000FF0
FFF8000FF0
FFF8001FE0
7FFC003FC0
7FFE003F80
3FFF007F00
3FFFC1FF00
1FFFFFFE00
1FFFFFFC00
0FFFFFF800
07FFFFF000
07FFFFE000
03FFFFE000
01FFFFC000
00FFFF8000
007FFF0000
000FFF0000
0000FE0000
0000FC0000
0001FC0000
0003F80000
0003F00000
0007F00000
000FE00000
000FE00000
001FC00000
001FC00000
003F800000
003F800000
007F000000
00FF000000
00FE000000
01FE000000
01FE000000
01FC000000
03FC000000
03FC000000
07F8000000
07F0000000
07F0000000
07E0000000
07C0000000
0780000000
0200000000
ENDCHAR
STARTCHAR 005A
ENCODING 90
SWIDTH 918 0
DWIDTH 51 0
BBX 48 43 2 -1
BITMAP
007800000000
00FFFFFC2000
01FFFFFFF800
01FFFFFFFC00
07FFFFFFFC00
07FFFFFFFC00
07FFFFFFF800
07FFFFFFF000
07FFFFFFE000
07FFFFFFC000
07FFFFFF8000
07F003FF8000
000007FE0000
00001FF80000
00003FE00000
00007FC00000
0000FF000000
0001FE000000
0003FC000000
0007F8000000
000FE0000000
001FC0000000
003F80000000
007F00000000
00FE00000000
01FC00000006
03F80000000F
03F80000003F
07F00000007F
0FE00FFFFFFF
0FFFFFFFFFFE
1FFFFFFFFFFE
3FFFFFFFFFFC
3FFFFFFFFFF8
7FFFFFFFFFF0
7FFFFFFFFFE0
FFFFFFFFFFE0
FFFFFFFFFFC0
FFFFFFFFFF00
FFFF00000000
FF8000000000
FC0000000000
E00000000000
ENDCHAR
STARTCHAR 005B
ENCODING 91
SWIDTH 396 0
DWIDTH 22 0
BBX 22 41 0 0
BITMAP
003FF0
007FFC
00FFFC
00FFFC
01FFFC
01FFFC
01FFF8
01FFF8
01FFF8
01FFF0
01F000
03F000
03E000
03E000
03E000
03E000
03C000
07C000
07C000
07C000
07C000
0FC000
0F8000
0F8000
0F8000
0F8000
1F8000
1F0000
1F0000
1F0000
3F0000
3F0000
3FFF80
7FFF80
7FFF80
FFFF80
FFFF00
FFFF00
7FFF00
7FFE00
1FF800
ENDCHAR
STARTCHAR 005C
ENCODING 92
SWIDTH 468 0
DWIDTH 26 0
BBX 24 44 1 -1
BITMAP
1F0000
3F8000
7F8000
7FC000
FFC000
FFC000
FFC000
FFC000
FFE000
7FE000
7FE000
3FF000
1FF000
1FF000
0FF800
0FF800
07FC00
07FC00
03FE00
03FE00
01FF00
01FF00
00FF80
00FF80
007FC0
007FC0
003FE0
003FE0
001FF0
001FF8
000FF8
000FFC
0007FE
0007FE
0003FF
0003FF
0001FF
0000FF
0000FF
00007E
00007E
00003E
00003C
000018
ENDCHAR
STARTCHAR 005D
ENCODING 93
SWIDTH 342 0
DWIDTH 19 0
BBX 18 42 0 0
BITMAP
00FF80
01FFC0
03FFC0
03FFC0
03FF80
07FF80
07FF80
03FF80
03FF00
003F00
003F00
003F00
003E00
007E00
007E00
007C00
007C00
007C00
007C00
00FC00
00F800
00F800
00F800
00F800
00F800
01F800
01F800
01F800
01F800
01F800
01F800
01F800
07F800
1FF800
3FF800
7FF800
FFF800
FFF800
FFF000
FFF000
FFE000
07C000
ENDCHAR
STARTCHAR 005E
ENCODING 94
SWIDTH 324 0
DWIDTH 18 0
BBX 17 20 0 28
BITMAP
003800
007800
007C00
00FC00
01FC00
03FE00
03FE00
07FF00
0FFF00
1FFF80
3FBF80
3F3F80
7F1F80
7E1F80
FC0F80
FC0F80
F80700
F80000
F00000
600000
ENDCHAR
STARTCHAR 005F
ENCODING 95
SWIDTH 774 0
DWIDTH 43 0
BBX 42 11 1 -12
BITMAP
3F0000000000
FFFFFFFFFC00
FFFFFFFFFF80
FFFFFFFFFF80
FFFFFFFFFF80
FFFFFFFFFFC0
FFFFFFFFFFC0
FFFFFFFFFF80
7FFFFFFFFF80
3FFFFFFFFF80
0E0000000000
ENDCHAR
STARTCHAR 0060
ENCODING 96
SWIDTH 216 0
DWIDTH 12 0
BBX 11 16 1 32
BITMAP
4000
E000
F000
F800
FC00
7F00
7F80
3FC0
3FC0
1FE0
0FE0
0FE0
07E0
07C0
07C0
0380
ENDCHAR
STARTCHAR 0061
ENCODING 97
SWIDTH 342 0
DWIDTH 19 0
BBX 18 29 0 0
BITMAP
000FC0
007FC0
01FFC0
07FFC0
0FFFC0
3FFFC0
7FFFC0
7FE780
7F0780
7E0780
7C0F80
780F80
33CF80
0FFF00
1FFF00
3FFF00
7FFF00
7FFF00
78FF00
F87F00
F87F00
FCFF00
FFFF00
FFFF00
7FFE00
7FFC00
7FC800
3F0000
1C0000
ENDCHAR
STARTCHAR 0062
ENCODING 98
SWIDTH 342 0
DWIDTH 19 0
BBX 17 40 1 -2
BITMAP
01C000
03C000
07C000
07C000
07C000
078000
0F8000
0F8000
0F8000
0F0000
0F0000
0F0000
1F0000
1F0000
1F0000
1E0000
1E0000
1E0000
3E0000
3FE000
3FF800
3FFC00
3FFE00
3FFF00
7FFF80
7FFF80
7E7F80
7E3F80
7E1F80
7F0F80
7F8F00
7FFF00
7FFE00
7FFE00
7FFC00
FFF800
FFF000
F80000
600000
200000
ENDCHAR
STARTCHAR 0063
ENCODING 99
SWIDTH 342 0
DWIDTH 19 0
BBX 16 23 1 0
BITMAP
00FC
03FE
07FF
0FFF
1FFF
1FFF
3FFE
3F3E
7E1E
7C1C
7800
F800
F800
F800
FC00
FE0F
FFFF
FFFF
7FFF
7FFE
3FFE
1FFC
0FF8
ENDCHAR
STARTCHAR 0064
ENCODING 100
SWIDTH 378 0
DWIDTH 21 0
BBX 18 36 1 0
BITMAP
000E00
001F00
001F00
003F00
003F00
003F00
003E00
003E00
003E00
003E00
003E00
003E00
003E00
003E00
07BE00
0FFE00
1FFE00
3FFE00
3FFE00
7FFE00
7FFE00
7FFE00
F9FE00
F8FE00
F87E00
F87F00
FC3FC0
FE3FC0
FF3FC0
7FFF80
7FFF80
7FFF00
3FFF00
3FFC00
1FF800
0FC000
ENDCHAR
STARTCHAR 0065
ENCODING 101
SWIDTH 324 0
DWIDTH 18 0
BBX 16 21 0 0
BITMAP
00F8
01FE
03FE
07FE
0FFE
1FFE
1FFE
3EFC
3FFC
3FF8
7FF8
7FF0
7FE0
FFC0
FF80
FFFF
FFFF
7FFF
7FFE
7FFC
1FF0
ENDCHAR
STARTCHAR 0066
ENCODING 102
SWIDTH 432 0
DWIDTH 24 0
BBX 23 44 0 -6
BITMAP
000380
0007F0
000FF8
001FF8
001FFC
003FFC
003FFE
003FFE
007CFC
00787C
00783C
007818
007800
00F800
00F800
00F800
00F800
00F800
00F800
00F800
00F8E0
00FFF0
3FFFF0
3FFFF0
7FFFE0
7FFFE0
FFFFC0
7FFFC0
7EFC00
787C00
007E00
007E00
007E00
007E00
003F00
003F00
003F00
003F00
001F80
001F00
001F00
000F00
000E00
000400
ENDCHAR
STARTCHAR 0067
ENCODING 103
SWIDTH 306 0
DWIDTH 17 0
BBX 15 36 0 -12
BITMAP
0070
01FC
03FC
03FE
07FE
0FFE
0FFE
1FFE
1FFE
1FFE
3FFC
3FFE
1FFE
1FFE
1FFE
1FFE
0FFE
0FFE
07FE
0FFE
1FFE
3FFE
3F3E
7C3E
7C3E
FC3E
FE3E
7E3E
7F3E
7FBE
3FFC
1FFC
0FF8
07F8
07F0
01F0
ENDCHAR
STARTCHAR 0068
ENCODING 104
SWIDTH 396 0
DWIDTH 22 0
BBX 20 36 1 -2
BITMAP
300000
780000
F80000
F80000
F80000
F80000
F80000
F80000
F80000
F80000
F80000
7C0000
7C0000
7C0000
7C0000
7C0000
7C0000
7C0000
7C07C0
7C1FC0
7C3FE0
7C7FE0
7CFFE0
7DFFE0
7FFFE0
7FE3E0
7FC3F0
7F83F0
7F03F0
7E03F0
7E01E0
7C01E0
7C01C0
780000
700000
200000
ENDCHAR
STARTCHAR 0069
ENCODING 105
SWIDTH 198 0
DWIDTH 11 0
BBX 8 29 1 1
BITMAP
07
1F
3F
3F
3E
3C
38
00
00
00
0C
1E
7E
7F
7F
7F
FF
FF
FF
7F
7F
7F
7F
7F
7F
7F
3E
3C
38
ENDCHAR
STARTCHAR 006A
ENCODING 106
SWIDTH 306 0
DWIDTH 17 0
BBX 20 40 -4 -12
BITMAP
003800
007C00
007C00
00FC00
00FC00
00F800
00F800
007000
004000
000700
000F80
001F80
001F80
003F80
003F80
003F80
001F80
001F80
001FC0
000FC0
000FC0
000FC0
000FC0
0007C0
0007C0
0007E0
0007E0
0007E0
0007E0
0007E0
0007F0
3007F0
7FFFF0
7FFFF0
FFFFF0
FFFFE0
FFFFE0
FFFFE0
007FC0
000380
ENDCHAR
STARTCHAR 006B
ENCODING 107
SWIDTH 378 0
DWIDTH 21 0
BBX 18 35 1 0
BITMAP
180000
3C0000
7C0000
FC0000
FC0000
FC0000
FC0000
FC0000
FC0000
FC0000
FC0000
7C0300
7C0780
7C0F80
7C1F80
7C3F80
7C7F00
7CFE00
7FFE00
7FFC00
7FF000
7FF800
7FFC00
7FFE00
3FFF00
3FFFC0
3FFFC0
3FFFC0
7FFFC0
7F7F80
7E3F80
7C1F00
3C0700
380000
300000
ENDCHAR
STARTCHAR 006C
ENCODING 108
SWIDTH 198 0
DWIDTH 11 0
BBX 7 40 2 0
BITMAP
3C
3E
FE
FE
FE
FC
FC
FC
FC
FC
FC
FC
FC
FC
FC
FC
FC
FC
FC
FC
FC
FC
FC
FC
FC
FC
FC
FE
FE
FE
FE
7E
7E
7E
7E
7C
7C
78
70
20
ENDCHAR
STARTCHAR 006D
ENCODING 109
SWIDTH 540 0
DWIDTH 30 0
BBX 28 24 1 0
BITMAP
03038030
0F8F80F0
1F9F81F0
3FBF83F0
3FFF83F0
3FFF87F0
3FFF8FF0
3FFF8FE0
3FFF9FE0
3FFFBFE0
3FFFFFE0
3FDFFFE0
3F9FFFE0
7F9FFFE0
7F1FF7E0
7F1FFFE0
7E1FE7E0
7E1FC7E0
FE0FC7E0
FC0F87E0
FC0F07C0
F80E07C0
E0000780
00000080
ENDCHAR
STARTCHAR 006E
ENCODING 110
SWIDTH 378 0
DWIDTH 21 0
BBX 19 25 1 1
BITMAP
000E00
3C3F00
3C7F00
7CFF00
7FFF80
FFFF80
FFFF80
FFFF80
FFFF80
FFFF80
FFDF80
7FDF80
7F9F80
7F9FC0
7F9FC0
7F9FC0
3F8FE0
3F8FE0
3F8FE0
3F8FE0
3F0FC0
3F07C0
3E0780
1E0600
1C0000
ENDCHAR
STARTCHAR 006F
ENCODING 111
SWIDTH 342 0
DWIDTH 19 0
BBX 18 23 0 0
BITMAP
001E00
007F00
00FF80
01FFC0
03FFC0
07FFC0
07FFC0
0FFFC0
1FFFC0
1FFFC0
3FEFC0
7F0F80
7E1F80
7E1F80
FE3F00
FFFE00
FFFE00
FFFC00
FFF800
7FF000
7FE000
7FC000
1F0000
ENDCHAR
STARTCHAR 0070
ENCODING 112
SWIDTH 468 0
DWIDTH 26 0
BBX 24 43 1 -19
BITMAP
07F000
0FFC00
1FFF00
3FFFC0
7FFFE0
7FFFF0
7FFFFC
FFFFFE
FFFFFE
FF7FFF
FF1FFF
FF07FF
FF01FF
FF00FF
7F007E
7F80FE
7FFFFC
7FFFF8
7FFFF0
7FFFE0
7FFFC0
7FFF00
7FF000
7E0000
7E0000
7E0000
7E0000
FE0000
FE0000
FE0000
FE0000
FE0000
FE0000
FE0000
FE0000
FE0000
FE0000
FE0000
FE0000
FC0000
780000
780000
700000
ENDCHAR
STARTCHAR 0071
ENCODING 113
SWIDTH 396 0
DWIDTH 22 0
BBX 21 40 1 -18
BITMAP
000E00
003F00
007F80
01FF80
03FF80
07FFC0
0FFFC0
1FFFC0
3FFFC0
3FFFC0
7F7FC0
FE7FC0
FFFFC0
FFFF80
FFFF80
FFFF80
FFFF80
FFBF80
FF3F80
7C3F80
003F80
003F80
003FC0
003FC0
003FC0
003FC0
003FC0
003FC0
001FE0
001FE0
001FE0
001FF0
001FF0
001FF8
001FF8
000FF0
000FE0
000FE0
0007C0
000780
ENDCHAR
STARTCHAR 0072
ENCODING 114
SWIDTH 378 0
DWIDTH 21 0
BBX 20 26 0 0
BITMAP
03E000
07F800
0FFE00
1FFF00
1FFFE0
3FFFF0
3FFFF0
7FFFF0
7FFFF0
7FFFF0
FE7FE0
FE1FC0
FE0700
7E0000
7E0000
7E0000
7E0000
7F0000
7F0000
7F0000
7F0000
7F0000
3E0000
3E0000
3C0000
180000
ENDCHAR
STARTCHAR 0073
ENCODING 115
SWIDTH 504 0
DWIDTH 28 0
BBX 26 24 1 -1
BITMAP
0000FE00
000FFF80
007FFF80
01FFFFC0
03FFFFC0
07F83FC0
07F01F80
0FE00400
0FF00000
0FFC0000
0FFFC000
07FFF800
07FFFE00
01FFFE00
003FFF00
0003FF00
0000FF00
0003FE00
001FFC00
3FFFF800
FFFFE000
FFFF0000
FFFC0000
7FC00000
ENDCHAR
STARTCHAR 0074
ENCODING 116
SWIDTH 450 0
DWIDTH 25 0
BBX 23 34 1 0
BITMAP
003000
00F800
00FC00
01FC00
03FC00
03FC00
03F800
1BF800
3FFFFC
7FFFFE
FFFFFE
FFFFFE
FFFFFE
FFFFFE
FFFFFE
FFFFF8
7FFF80
07F000
03F000
03F000
03F000
03F000
03F000
03F000
03F000
03F800
03FFE0
03FFE0
03FFE0
03FFE0
03FFC0
01FFC0
01FF80
00FE00
ENDCHAR
STARTCHAR 0075
ENCODING 117
SWIDTH 432 0
DWIDTH 24 0
BBX 23 26 0 0
BITMAP
0F0000
0F8000
1F8000
1F8078
3F00FC
3F00FC
3F01F8
3F01F8
3F01F0
7F03F0
7E03F0
7E03F0
7E07F0
7E07F0
7E0FF0
7E1FF8
FE3FF8
FE7FF8
FFFFFC
7FFFFC
7FF9FE
7FF1FC
7FE0FC
7FC0F8
3F8078
1E0000
ENDCHAR
STARTCHAR 0076
ENCODING 118
SWIDTH 450 0
DWIDTH 25 0
BBX 24 29 0 0
BITMAP
000007
00000F
00001F
1C003F
3E003E
7F003E
7F003E
FF807C
FF807C
FF80F8
FFC0F8
7FC1F0
7FC1F0
3FE3E0
3FF3E0
1FF7C0
1FFFC0
0FFF80
0FFF80
07FF00
07FF00
03FF00
03FE00
01FE00
01FC00
00FC00
00F800
007000
002000
ENDCHAR
STARTCHAR 0077
ENCODING 119
SWIDTH 522 0
DWIDTH 29 0
BBX 28 24 0 0
BITMAP
10000060
3E0000F0
3E0000F0
7E0701F0
7E0F81F0
7E1F81F0
FE1F83E0
FE3F83E0
FE3F83E0
FE3F83E0
FE7F87E0
FE7F87C0
FE7FC7C0
FFFFCFC0
7FFFEF80
7FFFFF80
7FFFFF00
7FEFFF00
7FEFFE00
3FC7FE00
3F87FC00
1F07F800
0E03F000
0001C000
ENDCHAR
STARTCHAR 0078
ENCODING 120
SWIDTH 432 0
DWIDTH 24 0
BBX 23 23 0 1
BITMAP
00000C
07801E
0FC03E
0FE07C
1FE1FC
1FF3FC
1FFFF8
1FFFF0
1FFFE0
0FFFC0
07FF80
07FF80
03FF80
07FFC0
0FFFE0
3FFFF0
3FFFF0
7FFFF8
7FBFF0
FF1FF0
7C0FE0
7807E0
700180
ENDCHAR
STARTCHAR 0079
ENCODING 121
SWIDTH 432 0
DWIDTH 24 0
BBX 23 38 0 -16
BITMAP
1C0000
3E001E
3E003E
7F003E
7F007E
FF00FE
7F00FE
7F81FC
7F81F8
7FC3F8
3FC7F0
3FEFE0
3FFFC0
3FFF80
1FFF80
1FFF00
0FFE00
0FFE00
07FC00
07F800
03F000
03F000
07E000
07C000
0F8000
0F8000
1F0000
1F0000
3F0000
3F0000
3F0000
3F8000
3F8000
3F8000
3F0000
1F0000
1E0000
0E0000
ENDCHAR
STARTCHAR 007A
ENCODING 122
SWIDTH 450 0
DWIDTH 25 0
BBX 23 24 1 0
BITMAP
0FF000
0FFE00
1FFF00
1FFF80
3FFF80
3FFF80
3FFF80
3FFF00
3FFE00
3FFE00
09FC00
03F800
07F000
0FE000
1FC000
3F80FE
3FFFFE
7FFFFE
FFFFFC
FFFFFC
FFFFF8
FFFFF0
FFFFF0
3FF000
ENDCHAR
STARTCHAR 007B
ENCODING 123
SWIDTH 288 0
DWIDTH 16 0
BBX 15 53 0 -10
BITMAP
001E
007E
00FE
01FE
01FC
03FC
07FC
07F8
0FE0
0FC0
0FE0
0FE0
1FE0
1FE0
0FF0
0FF0
0FF0
0FF0
07F0
07F0
0FF0
1FE0
3FE0
7FC0
FFC0
FF80
FFC0
FFC0
FFC0
7FC0
1FC0
1FC0
0F80
0F80
1F80
1F80
1F00
1F00
3F00
3F00
3F00
3F00
3F00
3F80
3F80
3FE0
3FF8
1FF8
1FF0
1FF0
0FF0
07E0
03C0
ENDCHAR
STARTCHAR 007C
ENCODING 124
SWIDTH 216 0
DWIDTH 12 0
BBX 10 36 1 3
BITMAP
0180
03C0
07C0
07C0
0F80
0F80
0F80
0F80
1F80
1F80
1F00
1F00
1F00
1F00
1F00
3F00
3F00
3E00
3E00
3E00
3E00
3E00
3E00
3E00
7C00
7C00
7E00
FE00
FE00
FE00
FC00
FC00
FC00
F800
7800
7000
ENDCHAR
STARTCHAR 007D
ENCODING 125
SWIDTH 378 0
DWIDTH 21 0
BBX 17 55 2 -10
BITMAP
0F0000
1FC000
3FE000
7FF000
FFF000
FFF800
FFFC00
FFFC00
7FFC00
07FC00
03F800
01F800
01F000
03F000
03E000
07E000
0FC000
0FC000
0FC000
0FC000
0FE000
1FFC00
1FFE00
1FFE00
1FFE00
0FFC00
0FFC00
07F800
03F800
03FC00
03FE00
03FE00
03FF00
01FF00
01FF00
00FF80
007F80
007F80
003F80
003F80
001F80
001F80
000F80
000F80
001F80
001F00
007F00
01FE00
03FE00
0FFC00
1FFC00
3FF800
7FE000
7F0000
780000
ENDCHAR
STARTCHAR 007E
ENCODING 126
SWIDTH 432 0
DWIDTH 24 0
BBX 24 14 0 31
BITMAP
00F000
03FC02
0FFC07
1FFE0F
3FFE3F
7FFFFE
7FFFFE
7FFFFE
FFFFFC
FE3FFC
7C1FF8
7C0FF0
380FC0
000780
ENDCHAR
STARTCHAR 00A0
ENCODING 160
SWIDTH 504 0
DWIDTH 28 0
BBX 0 0 0 0
BITMAP
ENDCHAR
STARTCHAR 00A1
ENCODING 161
SWIDTH 198 0
DWIDTH 11 0
BBX 9 39 1 2
BITMAP
0700
0F00
1F80
1F80
3F80
3F80
3F00
3F00
3F00
1E00
0000
0000
0E00
1F00
1F00
1F00
3F00
3F00
3F00
3E00
3E00
7E00
7E00
7C00
7C00
7C00
FC00
F800
F800
F800
F800
F800
F000
F000
F000
F000
E000
6000
4000
ENDCHAR
STARTCHAR 00A2
ENCODING 162
SWIDTH 396 0
DWIDTH 22 0
BBX 21 45 1 -12
BITMAP
000300
000700
000700
000F00
000F80
001F80
001F80
001F00
003F00
00FE00
03FF00
07FF80
07FF80
0FFF80
1FFF80
1FFF80
3FFF80
3FFF80
7FFF80
7EFF80
7CF980
FCF000
FDF000
FDF000
FFF038
FFF0F8
7FFFF8
7FFFF0
7FFFF0
3FFFF0
3FFFE0
1FFFC0
1FFE00
07E000
03C000
01C000
01C000
01C000
01C000
01E000
01E000
01E000
01E000
006000
004000
ENDCHAR
STARTCHAR 00A7
ENCODING 167
SWIDTH 468 0
DWIDTH 26 0
BBX 24 53 1 -12
BITMAP
003F00
00FFC0
03FFE0
03FFF0
07FFF0
0FFFF0
1FFFF0
1FFFF0
1FFFF0
3F81F0
3E0070
3C0030
3E0000
3E0000
3F8000
3FE000
1FF800
1FFE00
1FFF80
0FFFE0
07FFF8
03FFFC
03FFFE
03FFFE
03FFFF
07FFFF
07C3FF
0FC0FF
0FE0FF
0FFFFF
0FFFFF
0FFFFF
07FFFF
03FFFF
03FFFF
01FFFF
007F9F
00001E
00001E
00001E
00003E
00003E
1C007C
3C00FC
7801FC
7C0FF8
7FFFF8
FFFFF0
FFFFE0
FFFFC0
FFFF80
7FFE00
03F800
ENDCHAR
STARTCHAR 00A8
ENCODING 168
SWIDTH 342 0
DWIDTH 19 0
BBX 17 11 1 32
BITMAP
000F00
301F80
3E1F80
7F3F80
FE3F80
FE3F80
FE3F80
FE3F00
7E1F00
7E0C00
3C0000
ENDCHAR
STARTCHAR 00A9
ENCODING 169
SWIDTH 774 0
DWIDTH 43 0
BBX 41 43 1 -1
BITMAP
00003F000000
0001FFC00000
0007FFE00000
000FFFF80000
003FFFFC0000
007FFFFE0000
00FFFFFF0000
01FFFFFFE000
01FFFFFFF000
03FF3FFFF800
07FE3FFFFC00
07FC7FFFFE00
0FF8FFF87E00
1FF1FFF80F00
1FE3FFF80700
3FE3FFF80700
3FC7FFFC0700
7F87FE3C0700
7F8FFC080700
FF0FF8000780
FF0FF8000780
FE0FF0000F80
FE0FF0000F80
FE0FE0001F80
FC0FE0001F80
FC0FC0003F80
FC0FFF807F80
FC07FFC07F00
FC07FFE0FF00
FC03FFE1FF00
FC03FFF3FE00
FC01FFFFFC00
7C007FFFFC00
7C001FFFF800
3E0007FFF000
3FC03FFFE000
1FFFFFFF8000
0FFFFFFF0000
07FFFFFC0000
03FFFFF00000
00FFFFF00000
003FFFC00000
0001FF000000
ENDCHAR
STARTCHAR 00AB
ENCODING 171
SWIDTH 648 0
DWIDTH 36 0
BBX 32 29 1 0
BITMAP
000C0000
001F0000
003F0300
003F0F00
007F1F80
007F1F80
00FF3F80
00FF3F80
01FE7FC0
01FC7FC0
03FCFF80
07F9FF80
0FF1FF00
0FE1FE00
1FE1FE00
3FC1FF00
3F81FFE0
7F81FFFC
7FC1FFFE
7FFFFFFE
FFFFFFFF
FFFFFFFF
FFFFEFFF
FFFFE3FF
7FFFE07F
3FFFE007
1FFFE000
07FFE000
0003C000
ENDCHAR
STARTCHAR 00AD
ENCODING 173
SWIDTH 378 0
DWIDTH 21 0
BBX 20 10 0 10
BITMAP
3C0000
3FFFE0
7FFFF0
7FFFE0
FFFFE0
FFFFC0
FFFFC0
FFFF80
FFFF00
FF8000
ENDCHAR
STARTCHAR 00AE
ENCODING 174
SWIDTH 738 0
DWIDTH 41 0
BBX 40 41 0 0
BITMAP
000FE00000
003FFE0000
00FFFF8000
01FFFFC000
01FFFFE000
03FFFFF000
07FE03F000
07FFFFF800
0FFFFFFE00
1FFFFFFF80
1FFFFFFFC0
3FDFFFFFF0
3F9FFFFFF0
3F9FFFE078
7F1FE7F03C
7F0FCFF01C
7E0FDFF01E
7E0FFFF00E
7E0FFFF00E
FC07FFF01F
FC07FFF01F
FC07FFE01F
FC07FFC03F
FC07FF003F
FC07FFC07F
7C03FFF87E
7C03FFFEFF
7C03FFFFFE
7C03F7FFFE
3E03F1FFFC
3E01F07FFC
1F01F03FF8
1F80F1FFF0
0FF03FFFE0
07FFFFFFE0
03FFFFFF80
01FFFFFF00
007FFFFC00
003FFFF800
000FFFE000
0000FF0000
ENDCHAR
STARTCHAR 00B0
ENCODING 176
SWIDTH 252 0
DWIDTH 14 0
BBX 12 16 1 26
BITMAP
1E00
3F00
7F80
FF80
FFC0
FFE0
FFE0
FEF0
FDF0
FFF0
7FF0
7FF0
3FF0
3FE0
1FE0
0780
ENDCHAR
STARTCHAR 00B1
ENCODING 177
SWIDTH 432 0
DWIDTH 24 0
BBX 21 35 2 -1
BITMAP
001C00
001E00
003F00
007F00
007F00
007F00
007F00
00FF00
1EFF00
1FFFF0
3FFFF8
7FFFF8
7FFFF0
7FFFF0
7FFFE0
7FFFE0
3FFF80
00FE00
00FE00
01FE00
01FC00
01FC00
01FC00
00F800
00F000
3FFFE0
7FFFE0
7FFFF0
7FFFF0
FFFFF0
7FFFF0
7FFFF0
7FFFE0
3FFFE0
1FFFE0
ENDCHAR
STARTCHAR 00B4
ENCODING 180
SWIDTH 216 0
DWIDTH 12 0
BBX 11 16 1 32
BITMAP
0040
00C0
01C0
03E0
07C0
1FC0
3FC0
7F80
FF00
FF00
FE00
FC00
FC00
FC00
7800
3000
ENDCHAR
STARTCHAR 00B6
ENCODING 182
SWIDTH 630 0
DWIDTH 35 0
BBX 33 47 1 -5
BITMAP
0001FE0000
000FFFC000
007FFFF000
00FFFFF800
03FFFFFC00
0FFFFFFE00
1FFFFFFF00
3FFFFFFF00
3FFFFFFF00
7FFFFFFF80
7FFFE1FF80
FFFFF07F80
FFEFF07F80
FF8FE07F80
FE0FE07F80
FC0FE03F00
FC07E07F00
FE07E07F00
FF87E1FF00
7FE7E7FF00
7FFFFFFF00
7FFFFFFF00
3FFFFFFF00
1FFFFFFF00
0FFFFFFF00
07FFFFFF00
03FFFFFF00
01FFFF9F00
00FFFE1F00
003FF81F00
0007C01F00
0007C01F00
0007C01F00
0007C01F00
0007C01F00
0007C01F00
0007C01F00
0007C00F00
0007C00700
0007C00200
0007C00000
0007C00000
0007C00000
0007C00000
0003C00000
0001C00000
0000800000
ENDCHAR
STARTCHAR 00BB
ENCODING 187
SWIDTH 666 0
DWIDTH 37 0
BBX 35 27 1 -1
BITMAP
3C00300000
7E00FC0000
FF00FF0000
FF80FF8000
FFE0FFE000
FFF0FFF800
FFFDFFFE00
7FFFFFFF80
7FFFFFFFC0
3FFFFFFFC0
0FFFFFFFE0
03FFF7FFE0
00FFF0FFE0
003FF0FFE0
001FF1FFC0
007FE3FF80
00FFEFFF00
01FFDFFE00
01FFBFFC00
03FF7FF000
03FE7FE000
03FC7FC000
03F87F8000
03F0FF0000
01E07C0000
00C0780000
0000100000
ENDCHAR
STARTCHAR 00BF
ENCODING 191
SWIDTH 396 0
DWIDTH 22 0
BBX 21 43 1 0
BITMAP
001C00
003E00
007E00
007E00
00FE00
00FE00
00FC00
00F800
007800
001000
000000
000000
000000
001800
007800
007800
00F800
01F800
01F800
01F800
01F800
01F000
01F000
01F000
03E000
03E000
07C070
07C0F0
0F81F8
0F81F8
1F03F8
3F03F0
3E07F0
7F87F0
FFE7E0
FFFFE0
FFFFC0
FFFFC0
FFFFC0
3FFF80
0FFF00
03FE00
00F800
ENDCHAR
STARTCHAR 00C1
ENCODING 193
SWIDTH 738 0
DWIDTH 41 0
BBX 26 63 2 -7
BITMAP
00008000
00018000
00038000
00078000
001F8000
003F8000
007F8000
00FF0000
01FE0000
01FE0000
01FC0000
01F80000
01F80000
01F00000
00F00000
00600000
00000000
00000000
00000C00
00001E00
00003E00
00007E00
00007E00
00007E00
0000FE00
0000FE00
0000FE00
0000FC00
0001FC00
0001FC00
0001FC00
0001FC00
0003FC00
0003FE00
0007FE00
0007FE00
000FFE00
001FFE00
003FFE00
007F7E00
007FFE00
00FFFE00
01FFFF00
03FFFF00
07FFFF00
0FFFFF00
1FFFFF00
7FFFFF00
7FFFFF80
7FFFFF80
7F87FF80
FF003F80
FE003F80
FC003FC0
FC001FC0
F8001FC0
70001F80
00001F80
00001F80
00001F00
00000F00
00000E00
00000C00
ENDCHAR
STARTCHAR 00C2
ENCODING 194
SWIDTH 774 0
DWIDTH 43 0
BBX 27 65 2 -7
BITMAP
0001C000
0003E000
0003E000
0007E000
000FF000
001FF000
001FF800
003FF800
007FFC00
00FFFC00
01FDFC00
01F9FE00
03F8FE00
03F0FE00
07E07C00
07E07C00
07C03C00
07C01800
03800E00
02001F00
00001F00
00003F00
00003F00
00007F00
00007F00
00007F00
00007F00
0000FE00
0000FE00
0000FE00
0000FE00
0001FE00
0001FE00
0001FE00
0003FF00
0003FF00
0007FF00
000FFF00
001FFF00
003FFF00
003FBF00
007FFF00
00FFFF00
01FFFF80
03FFFF80
07FFFF80
0FFFFF80
1FFFFF80
3FFFFF80
7FFFFFC0
7FFFFFC0
FFFFFFC0
FF83DFC0
FF001FC0
FE001FE0
FC001FE0
FC001FE0
F8001FE0
70000FC0
00000FC0
00000FC0
00000F80
00000F80
00000700
00000600
ENDCHAR
STARTCHAR 00C4
ENCODING 196
SWIDTH 774 0
DWIDTH 43 0
BBX 27 60 2 -7
BITMAP
00380F00
007E1F80
007F3F80
00FE3F80
00FE3F80
00FE3F80
00FE3F80
007E3F00
007C1F00
00380C00
00000000
00000000
00000E00
00001F00
00001F00
00003F00
00003F00
00007F00
00007F00
00007F00
00007F00
0000FE00
0000FE00
0000FE00
0000FE00
0001FE00
0001FE00
0001FE00
0003FE00
0003FF00
0007FF00
000FFF00
000FFF00
001FFF00
003FFF00
007FBF00
00FFFF00
00FFFF00
01FFFF80
03FFFF80
07FFFF80
0FFFFF80
1FFFFF80
7FFFFF80
7FFFFFC0
7FFFFFC0
FFFFFFC0
FF83DFC0
FF001FC0
FE001FE0
FC001FE0
FC001FE0
F8001FC0
70000FC0
00000FC0
00000FC0
00000F80
00000F80
00000700
00000600
ENDCHAR
STARTCHAR 00C5
ENCODING 197
SWIDTH 774 0
DWIDTH 43 0
BBX 27 48 3 -7
BITMAP
00000E00
00001F00
00001F00
00003F00
00003F00
00007F00
00007F00
00007F00
00007F00
0000FF00
0000FF00
0000FF00
0000FF00
0001FF00
0001FF00
0001FF00
0003FF00
0003FF00
0007FF00
000FFF00
000FFF00
001FFF00
003FFF00
007FBF00
00FFFF00
00FFFF80
01FFFF80
03FFFF80
07FFFF80
0FFFFF80
1FFFFF80
7FFFFFC0
7FFFFFC0
7FFFFFC0
FF83DFC0
FF001FC0
FE001FE0
FE001FE0
FC001FE0
FC000FE0
F8000FE0
70000FC0
00000FC0
00000FC0
00000F80
00000780
00000700
00000400
ENDCHAR
STARTCHAR 00C6
ENCODING 198
SWIDTH 900 0
DWIDTH 50 0
BBX 49 50 1 -7
BITMAP
00000070000000
000000F0000000
000000F800FF00
000000F83FFF80
000001FFFFFF80
000001FFFFFF80
000003FFFFFF00
000003FFFFFF00
000007FFFFFF00
000007FFFFFE00
00000FFFFFFE00
00000FFFFFFC00
00001FFFFF8000
00001FFFF80000
00003FFF800000
00007FFC000000
00007FF8000000
0000FFF8003000
0000FDF81FF800
0001FDFFFFF800
0003F9FFFFF800
0003F9FFFFF800
0007F0FFFFF800
000FF0FFFFF800
001FE0FFFFF800
003FF0FFFFF000
003FFEFFFFF000
007FFFFFFFE000
00FFFFFF000000
01FFFFF8000000
03FFFFF8000000
07FFFFF8000000
0FFFFFF8000000
1FF7FFF8000000
3FF3FFF8000000
7FE3FFF8000000
7FC01FF800FE00
FFC003F83FFE00
FF8000FFFFFE00
FF8000FFFFFE00
FF0000FFFFFE00
FE0000FFFFFE00
FE0000FFFFFE00
7C0000FFFFFE00
380000FFFFFC00
000000FFFFF800
000000FFFC0000
0000007FC00000
0000007E000000
00000030000000
ENDCHAR
STARTCHAR 00C7
ENCODING 199
SWIDTH 864 0
DWIDTH 48 0
BBX 0 0 0 0
BITMAP
ENDCHAR
STARTCHAR 00C8
ENCODING 200
SWIDTH 720 0
DWIDTH 40 0
BBX 28 65 0 -6
BITMAP
00080000
001C0000
001E0000
001F0000
001F8000
001FE000
000FF000
000FF800
0007F800
0003FC00
0001FC00
0001FC00
0000FC00
0000F800
0000F800
00007000
00000000
00000000
000000E0
000003F0
00001FF0
0000FFF0
0003FFE0
001FFFE0
00FFFFC0
03FFFFC0
0FFFFFC0
1FFFFF80
1FFFE000
3FFF8000
7FFC0000
7FF00000
7FC00000
7F800000
7F800000
7F800F80
3F803F80
3F81FF00
3F87FF00
3FFFFF00
3FFFFE00
3FFFFC00
7FFFFC00
7FFFF800
7FFFF800
7FFFC000
7FFE0000
7FF00000
7FC00000
7F000000
FE000000
FE000000
FE003F00
FE03FFC0
FF3FFFC0
FFFFFFC0
FFFFFF80
FFFFFF80
FFFFFF00
FFFFFE00
FFFFFE00
FFFFF000
7FF80000
7F000000
70000000
ENDCHAR
STARTCHAR 00C9
ENCODING 201
SWIDTH 774 0
DWIDTH 43 0
BBX 29 63 2 -7
BITMAP
00001000
00003000
00007000
0000F800
0001F800
0007F000
000FF000
001FE000
003FE000
003FC000
003F8000
003F0000
003F0000
003F0000
001E00F0
000C03F8
00001FF8
0000FFF0
0007FFF0
001FFFE0
00FFFFC0
03FFFFC0
0FFFFFC0
1FFFFF80
3FFFFE00
7FFFE000
FFFF0000
FFFC0000
FFE00000
FFC00000
FF800000
FF800000
7F800000
7F001F80
3F00FF80
7F0FFF80
7FFFFF80
7FFFFF00
7FFFFE00
7FFFFE00
7FFFFC00
FFFFFC00
FFFFF800
FFFFC000
FFFE0000
FFF00000
FF800000
FE000000
FE000000
FE001F80
FE01FFE0
FE0FFFE0
FEFFFFC0
FFFFFFC0
FFFFFF80
FFFFFF80
FFFFFF00
FFFFFE00
FFFFFE00
FFFF8000
FFE00000
FE000000
40000000
ENDCHAR
STARTCHAR 00CA
ENCODING 202
SWIDTH 756 0
DWIDTH 42 0
BBX 30 68 0 -7
BITMAP
00000700
00000F80
00000F80
00001F80
00003FC0
00007FC0
00007FC0
0000FFE0
0001FFE0
0003FFF0
0007F7F0
0007E7F0
000FE3F0
000FC3F0
001F81F0
001F81F0
001F00E0
001F0000
001E0000
000C0078
000003FC
00000FFC
00007FF8
0003FFF8
000FFFF0
007FFFE0
01FFFFE0
07FFFFE0
0FFFFFC0
1FFFFF00
3FFFF000
7FFF8000
7FFE0000
7FF00000
7FE00000
7FC00000
7FC00000
3FC00000
3F800FC0
3F807FC0
3F87FFC0
3FFFFFC0
3FFFFF80
3FFFFF00
3FFFFF00
7FFFFE00
7FFFFE00
7FFFFC00
7FFFE000
7FFF0000
7FF80000
7FC00000
7F000000
7F000000
7F000FC0
7F00FFF0
FF07FFF0
FF7FFFE0
FFFFFFE0
FFFFFFC0
FFFFFFC0
FFFFFF80
FFFFFF00
7FFFFF00
7FFFC000
7FF00000
7F000000
20000000
ENDCHAR
STARTCHAR 00CB
ENCODING 203
SWIDTH 684 0
DWIDTH 38 0
BBX 28 60 0 -6
BITMAP
000003C0
000707F0
000FC7F0
001FCFE0
001FCFE0
003FCFE0
003FCFE0
003F87E0
001F87C0
000F8300
00070000
00000000
00000000
00000000
000001C0
000007E0
00001FF0
0000FFE0
0007FFE0
003FFFC0
00FFFF80
03FFFF80
0FFFFF80
1FFFFF00
1FFFE000
3FFF0000
7FF80000
7FE00000
7FC00000
7F800000
7F800000
3F801F00
3F80FF00
3F87FF00
3FFFFF00
3FFFFE00
3FFFFC00
3FFFFC00
7FFFF800
7FFFF800
7FFFE000
7FFF0000
7FF80000
7FC00000
7F000000
7E000000
7E000000
7E003F00
7E03FF80
FF3FFF80
FFFFFF80
FFFFFF80
FFFFFF00
FFFFFE00
FFFFFE00
7FFFFC00
7FFFE000
7FF80000
7F000000
30000000
ENDCHAR
STARTCHAR 00CC
ENCODING 204
SWIDTH 468 0
DWIDTH 26 0
BBX 18 60 1 -2
BITMAP
400000
E00000
F00000
F80000
FC0000
FE0000
7F0000
7F8000
3FC000
3FC000
1FE000
0FE000
0FE000
07C000
07C000
078000
030000
000000
000300
0FFF80
3FFF80
7FFF80
FFFF00
FFFF00
FFFE00
FFFC00
FFF800
FFF800
7FF800
0FF800
0FF800
0FF800
0FF800
0FF800
07F800
07F800
07F800
07F800
07F800
07FC00
07FC00
03FC00
03FC00
03FC00
03FC00
03FC00
03FC00
03FC00
03FC00
07FE00
0FFE00
1FFFC0
3FFFC0
7FFFC0
7FFF80
7FFF80
7FFF00
7FFE00
7FFC00
1FF000
ENDCHAR
STARTCHAR 00CD
ENCODING 205
SWIDTH 468 0
DWIDTH 26 0
BBX 19 59 1 -1
BITMAP
002000
007000
00F000
01F000
03F000
07F000
1FE000
3FE000
3FC000
7F8000
7F8000
7F0000
7E0000
3E0000
3E0000
1C0000
000000
000300
0FFF80
3FFF80
7FFF80
7FFF80
FFFF00
FFFE00
FFFE00
FFFC00
FFF800
3FF800
0FF800
0FF800
07F800
07F800
07F800
07FC00
07FC00
07FC00
07FC00
03FC00
03FC00
03FC00
03FC00
03FC00
03FC00
03FC00
03FE00
03FE00
03FE00
03FE00
07FE00
0FFF00
1FFFC0
1FFFE0
3FFFC0
7FFFC0
7FFF80
7FFF00
7FFF00
3FFE00
1FF800
ENDCHAR
STARTCHAR 00CE
ENCODING 206
SWIDTH 486 0
DWIDTH 27 0
BBX 20 64 2 -5
BITMAP
003000
007800
00F800
01FC00
01FC00
03FC00
07FE00
0FFE00
0FFF00
1FFF00
3F7F80
7F3F80
7E3F80
FE1F80
FC1F80
FC0F00
F80700
F00400
F00000
E00000
03FF80
1FFFC0
3FFFC0
7FFFC0
7FFFC0
FFFF80
FFFF00
FFFE00
FFFE00
FFFC00
3FFC00
0FFC00
07FC00
07FC00
07FC00
07FC00
07FC00
07FC00
03FC00
03FE00
03FE00
03FE00
03FE00
03FE00
03FE00
03FE00
03FE00
01FE00
01FE00
01FE00
01FF00
01FF00
03FF00
07FF00
0FFFC0
1FFFF0
1FFFF0
3FFFE0
3FFFE0
7FFFC0
7FFF80
7FFF00
3FFE00
1FF800
ENDCHAR
STARTCHAR 00CF
ENCODING 207
SWIDTH 486 0
DWIDTH 27 0
BBX 20 57 1 -2
BITMAP
0001E0
0603F0
0FC7F0
0FC7F0
1FC7F0
1FCFF0
1FC7E0
1FC7E0
1FC3C0
0FC180
078000
000000
000000
03FF80
1FFFC0
3FFFC0
7FFFC0
7FFFC0
FFFF80
FFFF00
FFFE00
FFFE00
FFFC00
3FFC00
0FFC00
07FC00
07FC00
07FC00
07FC00
07FC00
07FC00
03FC00
03FC00
03FE00
03FE00
03FE00
03FE00
03FE00
03FE00
03FE00
01FE00
01FE00
01FE00
01FF00
01FF00
03FF00
07FF00
0FFFC0
1FFFF0
3FFFF0
3FFFE0
7FFFC0
7FFFC0
7FFF80
7FFF00
3FFE00
1FF800
ENDCHAR
STARTCHAR 00D1
ENCODING 209
SWIDTH 684 0
DWIDTH 38 0
BBX 29 60 1 -5
BITMAP
003E0080
00FF0180
01FF0380
07FF8780
07FFCF80
0FFFFF80
0FFFFF00
1FFFFF00
1FC7FF00
0F87FE00
0F03FC00
0601F000
0000E000
00000000
00000070
000000F8
000001F8
000003F0
000007F0
006007F0
01F007F0
01F807F0
03F807F0
07F807F0
07F807F0
07F807F0
07FC07F0
07FC07E0
07FC07E0
07FC07E0
07FC07E0
0FFC07E0
0FFC07E0
0FFC0FE0
0FFE0FE0
0FFE0FC0
0FFE0FC0
0FFE0FC0
0FFE1FC0
0FFF1FC0
0FFF1F80
1FFF1F80
1FFF1F80
1FFFBF80
1FFFBF00
1FFFFF00
3FFFFF00
3FFFFE00
3F7FFE00
7F7FFE00
7F3FFC00
FE3FFC00
FE3FF800
FC1FF000
FC1FF000
F80FE000
F00FE000
4007C000
00038000
00010000
ENDCHAR
STARTCHAR 00D2
ENCODING 210
SWIDTH 756 0
DWIDTH 42 0
BBX 33 58 1 0
BITMAP
0080000000
01C0000000
01E0000000
01F0000000
01F8000000
01FC000000
00FE000000
00FF000000
007F800000
007F800000
003FC00000
001FC00000
001FC00000
000FC00000
000F800000
000F800000
0007000000
0000000000
0000000000
0000000000
0000000000
0000000000
0000000000
0000700000
0001FC0000
0007FF0000
000FFFC000
003FFFF000
007FFFFC00
00FFFFFE00
01FFFFFF00
03FFFFFF00
07FFFFFF80
0FFCF1FF80
1FF020FF80
1FC000FF80
3F80007F80
3F80007F80
7F00003F80
7F00003F80
7F00003F80
FF00003F80
FF00007F00
FF00007F00
FF00007E00
FF0000FE00
FF8001FC00
FFC007F800
FFE03FF000
FFF0FFE000
7FFFFFC000
7FFFFF8000
7FFFFF0000
3FFFFC0000
1FFFF00000
0FFFC00000
07FF000000
01F8000000
ENDCHAR
STARTCHAR 00D3
ENCODING 211
SWIDTH 828 0
DWIDTH 46 0
BBX 37 58 1 0
BITMAP
0000010000
0000030000
0000078000
00000F8000
00001F8000
00007F0000
0000FF0000
0001FE0000
0003FE0000
0003FC0000
0003F80000
0003F00000
0003F00000
0003F00000
0001E00000
0000E00000
0000000000
0000000000
0000000000
00003C0000
0000FF0000
0003FFC000
0007FFF000
001FFFFC00
003FFFFF80
007FFFFFC0
00FFFFFFE0
01FFFFFFE0
03FFFFFFF0
07FC7FFFF0
0FF83FFFF0
1FE03FFFF0
1FC01C7FF8
3FC0003FF8
3F80001FF8
3F80000FF8
7F80000FF8
7F80000FF0
7F00000FF0
FF00000FF0
FF00000FF0
FF80000FE0
FF80000FE0
FF80001FC0
FFC0003F80
FFC0007F80
FFE001FF00
FFF00FFE00
FFF87FFC00
7FFFFFF800
7FFFFFF000
7FFFFFC000
3FFFFF8000
3FFFFE0000
1FFFF80000
0FFFE00000
07FF800000
00FC000000
ENDCHAR
STARTCHAR 00D4
ENCODING 212
SWIDTH 792 0
DWIDTH 44 0
BBX 35 58 1 0
BITMAP
0000700000
0000F00000
0001F80000
0003F80000
0003F80000
0007FC0000
000FFC0000
001FFE0000
003FFE0000
003FFF0000
007E7F0000
00FE7F0000
00FC3F0000
01FC3F0000
01F81F0000
01F01E0000
01F00E0000
01E0080000
00C0000000
0000000000
0000000000
0000380000
0000FE0000
0003FF8000
0007FFE000
001FFFFC00
003FFFFF00
007FFFFF80
00FFFFFF80
01FFFFFFC0
03FFFFFFC0
07FEFFFFE0
0FF87FFFE0
1FE0187FE0
1FC0007FE0
3FC0003FE0
3F80003FE0
3F80001FE0
7F80001FE0
7F00001FE0
7F00001FE0
FF00001FC0
FF00001FC0
FF80001F80
FF80003F80
FF80007F00
FFC000FE00
FFE003FC00
7FF01FF800
7FF87FF000
7FFFFFE000
7FFFFFC000
3FFFFF0000
3FFFFE0000
1FFFF80000
0FFFE00000
07FF800000
00FC000000
ENDCHAR
STARTCHAR 00D6
ENCODING 214
SWIDTH 828 0
DWIDTH 46 0
BBX 37 55 1 0
BITMAP
000001E000
000603F000
000FC7F000
000FC7F000
001FC7F000
001FCFF000
001FC7E000
001FC7E000
001FC3C000
000FC18000
0007800000
0000000000
0000000000
0000000000
0000000000
0000000000
00003C0000
0000FF0000
0003FFC000
0007FFF000
001FFFFC00
003FFFFF80
007FFFFFC0
00FFFFFFE0
01FFFFFFE0
03FFFFFFF0
07FC7FFFF0
0FF83FFFF0
1FE03FFFF0
1FC01C7FF8
3FC0003FF8
3F80001FF8
3F80000FF8
7F80000FF8
7F80000FF0
7F00000FF0
FF00000FF0
FF00000FF0
FF80000FE0
FF80000FE0
FF80001FC0
FFC0003F80
FFC0007F80
FFE001FF00
FFF00FFE00
FFF87FFC00
7FFFFFF800
7FFFFFF000
7FFFFFC000
3FFFFF8000
3FFFFE0000
1FFFF80000
0FFFE00000
07FF800000
00FC000000
ENDCHAR
STARTCHAR 00D7
ENCODING 215
SWIDTH 0 0
DWIDTH 0 0
BBX 0 0 0 0
BITMAP
ENDCHAR
STARTCHAR 00D9
ENCODING 217
SWIDTH 846 0
DWIDTH 47 0
BBX 27 57 1 1
BITMAP
00100000
00380000
003C0000
003E0000
003F0000
001FC000
001FE000
000FF000
000FF000
0007F800
0003F800
0003F800
0001F800
0001F000
0001F000
0000E000
00000000
00000000
00000000
00000000
00000000
00000000
00000380
078007C0
0FC007C0
1F800FC0
1F800FC0
3F801FC0
3F801FC0
3F801FC0
3F001F80
3F001F80
3F001F80
3F003F80
3E003F80
7E003F80
7E003F80
7E003F80
7E003F00
7E007F00
7E007F00
FE00FF80
FE01FF80
FE01FF80
FE03FF80
FF07FF80
7F0FFFC0
7F3FBFC0
7FFF3FE0
7FFE1FE0
7FFC1FC0
7FFC1F80
3FF81F80
3FF00F00
1FE00F00
1FC00400
0F000000
ENDCHAR
STARTCHAR 00DA
ENCODING 218
SWIDTH 828 0
DWIDTH 46 0
BBX 27 57 1 1
BITMAP
00002000
00007000
0000F000
0001F000
0003F000
000FF000
001FE000
003FE000
003FC000
007F8000
007F0000
007F0000
007E0000
003E0000
003E0000
001C0000
00000000
00000000
00000000
00000000
00000000
00000000
00000380
078007C0
0FC007C0
1F800FC0
1F800FC0
3F801FC0
3F801FC0
3F801FC0
3F001F80
3F001F80
3F001F80
3F003F80
3E003F80
7E003F80
7E003F80
7E003F80
7E003F00
7E007F00
7E007F00
FE00FF80
FE01FF80
FE01FF80
FE03FF80
FF07FF80
7F0FFFC0
7F3FBFC0
7FFF3FE0
7FFE1FE0
7FFC1FC0
7FFC1F80
3FF81F80
3FF00F00
1FE00F00
1FC00400
0F000000
ENDCHAR
STARTCHAR 00DB
ENCODING 219
SWIDTH 846 0
DWIDTH 47 0
BBX 27 57 1 1
BITMAP
00003800
00007800
0000FC00
0000FC00
0001FC00
0003FE00
0003FE00
0007FF00
000FFF00
001FFF80
003FBF80
003F3F80
007F1F80
007E1F80
00FC0F80
00FC0F80
00F80700
00F80000
00F00000
00600000
00000000
00000000
00000380
078007C0
0FC007C0
1F800FC0
1F800FC0
3F801FC0
3F801FC0
3F801FC0
3F001F80
3F001F80
3F001F80
3F003F80
3E003F80
7E003F80
7E003F80
7E003F80
7E003F00
7E007F00
7E007F00
FE00FF80
FE01FF80
FE01FF80
FE03FF80
FF07FF80
7F0FFFC0
7F3FBFC0
7FFF3FE0
7FFE1FE0
7FFC1FC0
7FFC1F80
3FF81F80
3FF00F00
1FE00F00
1FC00400
0F000000
ENDCHAR
STARTCHAR 00DC
ENCODING 220
SWIDTH 846 0
DWIDTH 47 0
BBX 28 53 1 1
BITMAP
000003C0
000407E0
000F87F0
001FCFE0
001FCFE0
003FCFE0
003F8FE0
003F87E0
001F87C0
000F8300
000F0000
00000000
00000000
00000000
00000000
00000000
00000000
00000000
00000380
078007C0
0FC007C0
1F800FC0
1F800FC0
3F801FC0
3F801FC0
3F801FC0
3F001F80
3F001F80
3F001F80
3F003F80
3E003F80
7E003F80
7E003F80
7E003F80
7E003F00
7E007F00
7E007F00
FE00FF80
FE01FF80
FE01FF80
FE03FF80
FF07FF80
7F0FFFC0
7F3FBFC0
7FFF3FE0
7FFE1FE0
7FFC1FC0
7FFC1F80
3FF81F80
3FF00F00
1FE00F00
1FC00400
0F000000
ENDCHAR
STARTCHAR 00E0
ENCODING 224
SWIDTH 576 0
DWIDTH 32 0
BBX 18 48 0 0
BITMAP
040000
070000
078000
07C000
07E000
07F000
03FC00
03FC00
01FE00
00FE00
00FE00
007E00
007E00
003E00
003C00
001800
000000
000000
000000
000FC0
007FC0
01FFC0
07FFC0
0FFFC0
3FFFC0
7FFFC0
7FE780
7F0780
7E0780
7C0F80
780F80
33CF80
0FFF00
1FFF00
3FFF00
7FFF00
7FFF00
78FF00
F87F00
F87F00
FCFF00
FFFF00
FFFF00
7FFE00
7FFC00
7FC800
3F0000
1C0000
ENDCHAR
STARTCHAR 00E1
ENCODING 225
SWIDTH 576 0
DWIDTH 32 0
BBX 18 47 0 0
BITMAP
000400
000E00
001E00
003E00
007E00
00FE00
03FC00
07FC00
07F800
07F000
0FF000
0FE000
07C000
07C000
07C000
018000
000000
000000
000FC0
007FC0
01FFC0
07FFC0
0FFFC0
3FFFC0
7FFFC0
7FE780
7F0780
7E0780
7C0F80
780F80
33CF80
0FFF00
1FFF00
3FFF00
7FFF00
7FFF00
78FF00
F87F00
F87F00
FCFF00
FFFF00
FFFF00
7FFE00
7FFC00
7FC800
3F0000
1C0000
ENDCHAR
STARTCHAR 00E2
ENCODING 226
SWIDTH 576 0
DWIDTH 32 0
BBX 21 48 0 0
BITMAP
000300
000780
000F80
001FC0
001FC0
003FC0
007FE0
00FFE0
00FFF0
01FFF0
03F7F8
07F3F8
07E3F8
0FE1F8
0FC1F8
0FC0F0
0F8070
0F0040
0F0000
0E0FC0
007FC0
01FFC0
07FFC0
0FFFC0
3FFFC0
7FFFC0
7FE780
7F0780
7E0780
7C0F80
780F80
33CF80
0FFF00
1FFF00
3FFF00
7FFF00
7FFF00
78FF00
F87F00
F87F00
FCFF00
FFFF00
FFFF00
7FFE00
7FFC00
7FC800
3F0000
1C0000
ENDCHAR
STARTCHAR 00E3
ENCODING 227
SWIDTH 576 0
DWIDTH 32 0
BBX 27 45 0 0
BITMAP
000F8020
003FC060
007FC0E0
01FFE1E0
01FFF3E0
03FFFFE0
03FFFFE0
03FFFFC0
07F1FFC0
03E1FF80
03C0FF00
01C07C00
00003800
00000000
00000000
00000000
000FC000
007FC000
01FFC000
07FFC000
0FFFC000
3FFFC000
7FFFC000
7FE78000
7F078000
7E078000
7C0F8000
780F8000
33CF8000
0FFF0000
1FFF0000
3FFF0000
7FFF0000
7FFF0000
78FF0000
F87F0000
F87F0000
FCFF0000
FFFF0000
FFFF0000
7FFE0000
7FFC0000
7FC80000
3F000000
1C000000
ENDCHAR
STARTCHAR 00E4
ENCODING 228
SWIDTH 576 0
DWIDTH 32 0
BBX 22 43 0 0
BITMAP
0000F8
0180FC
03F1FC
03F1FC
07F3F8
07F3F8
07F3F8
07F1F8
07F0F0
03E040
01C000
000000
000000
000000
000FC0
007FC0
01FFC0
07FFC0
0FFFC0
3FFFC0
7FFFC0
7FE780
7F0780
7E0780
7C0F80
780F80
33CF80
0FFF00
1FFF00
3FFF00
7FFF00
7FFF00
78FF00
F87F00
F87F00
FCFF00
FFFF00
FFFF00
7FFE00
7FFC00
7FC800
3F0000
1C0000
ENDCHAR
STARTCHAR 00E5
ENCODING 229
SWIDTH 576 0
DWIDTH 32 0
BBX 44 43 0 0
BITMAP
03FFFFFFFFF0
03FFFFFFFFF0
03FFFFFFFFF0
038000000070
038000000070
038000000070
038000000070
038000000070
038000000070
038000000070
038000000070
038000000070
038000000070
038000000070
038FC0000070
03FFC0000070
03FFC0000070
07FFC0000070
0FFFC0000070
3FFFC0000070
7FFFC0000070
7FE780000070
7F8780000070
7F8780000070
7F8F80000070
7B8F80000070
33CF80000070
0FFF00000070
1FFF00000070
3FFF00000070
7FFF00000070
7FFF00000070
7BFF00000070
FBFF00000070
FBFF00000070
FFFF00000070
FFFF00000070
FFFF00000070
7FFE00000070
7FFC00000070
7FFFFFFFFFF0
3FFFFFFFFFF0
1FFFFFFFFFF0
ENDCHAR
STARTCHAR 00E6
ENCODING 230
SWIDTH 684 0
DWIDTH 38 0
BBX 36 43 1 -3
BITMAP
0003C00000
001FC00000
00FFE00000
03FFE00000
0FFFE00000
1FFFE00000
3FFFE00000
7FFFE00000
7FFFE00000
7FFFE00000
7FE3E00000
7FC7E00000
7F87C00000
7F07C00000
7E07C0E000
3C07C1F000
19FFC7F000
07FFCFF000
0FFFCFF000
0FFF9FF800
1FFFBFF800
1FFFFFF800
3FFFFFF800
3FFFFFF800
7FFFFFF800
7FFFFFF000
7E3FFFF000
FC1FFFE000
FC1FFFE000
FC1FFFC000
FFFFFF8040
FFFFFF81A0
FFFFFF07F0
7FFFFFFFF0
7FFFFFFFE0
3FFFFFFFF0
3FFFFFFFE0
1FFFFFFFE0
0FFFFFFFC0
07F8FFFF80
00007FFE00
00003FF800
00000FE000
ENDCHAR
STARTCHAR 00E7
ENCODING 231
SWIDTH 594 0
DWIDTH 33 0
BBX 0 0 0 0
BITMAP
ENDCHAR
STARTCHAR 00E8
ENCODING 232
SWIDTH 594 0
DWIDTH 33 0
BBX 16 49 0 0
BITMAP
0200
0380
03C0
03E0
03F0
03F8
01FE
01FE
00FF
00FF
007F
003F
003F
001F
001E
000C
0000
0000
0000
0000
0000
0000
0000
0000
0000
0000
0000
0000
00F8
01FE
03FE
07FE
0FFE
1FFE
1FFE
3EFC
3FFC
3FF8
7FF8
7FF0
7FE0
FFC0
FF80
FFFF
FFFF
7FFF
7FFE
7FFC
1FF0
ENDCHAR
STARTCHAR 00E9
ENCODING 233
SWIDTH 594 0
DWIDTH 33 0
BBX 16 48 0 0
BITMAP
0002
0007
000F
001F
003F
007F
01FE
03FE
03FC
07F8
07F8
07F0
03E0
03E0
03E0
00C0
0000
0000
0000
0000
0000
0000
0000
0000
0000
0000
0000
00F8
01FE
03FE
07FE
0FFE
1FFE
1FFE
3EFC
3FFC
3FF8
7FF8
7FF0
7FE0
FFC0
FF80
FFFF
FFFF
7FFF
7FFE
7FFC
1FF0
ENDCHAR
STARTCHAR 00EA
ENCODING 234
SWIDTH 594 0
DWIDTH 33 0
BBX 22 48 0 0
BITMAP
000180
0003C0
0007C0
000FE0
000FE0
001FE0
003FF0
007FF0
007FF8
00FFF8
01FBFC
03F9FC
03F1FC
07F0FC
07E0FC
07C078
07C078
078020
078000
070000
000000
000000
000000
000000
000000
000000
000000
00F800
01FE00
03FE00
07FE00
0FFE00
1FFE00
1FFE00
3EFC00
3FFC00
3FF800
7FF800
7FF000
7FE000
FFC000
FF8000
FFFF00
FFFF00
7FFF00
7FFE00
7FFC00
1FF000
ENDCHAR
STARTCHAR 00EB
ENCODING 235
SWIDTH 594 0
DWIDTH 33 0
BBX 24 44 0 0
BITMAP
00003E
00603F
00FC7F
00FC7F
01FCFF
01FCFE
01FCFE
01FC7E
01FC3C
00F810
007000
000000
000000
000000
000000
000000
000000
000000
000000
000000
000000
000000
000000
00F800
01FE00
03FE00
07FE00
0FFE00
1FFE00
1FFE00
3EFC00
3FFC00
3FF800
7FF800
7FF000
7FE000
FFC000
FF8000
FFFF00
FFFF00
7FFF00
7FFE00
7FFC00
1FF000
ENDCHAR
STARTCHAR 00EC
ENCODING 236
SWIDTH 324 0
DWIDTH 18 0
BBX 11 50 1 1
BITMAP
C000
E000
F000
F800
FC00
FF00
7F80
7FC0
3FC0
1FC0
1FE0
0FE0
07C0
07C0
0780
0300
0000
0000
0000
0000
0000
0000
0000
0000
0000
0000
0000
0000
0000
0000
0000
0C00
3E00
7E00
7F00
7F00
7F00
FF00
FF00
FF00
7F00
7F00
7F00
7F00
7F00
7F00
7F00
3E00
3C00
3800
ENDCHAR
STARTCHAR 00ED
ENCODING 237
SWIDTH 324 0
DWIDTH 18 0
BBX 11 49 -1 1
BITMAP
0040
00C0
01E0
03E0
07E0
1FC0
3FC0
7F80
7F80
FF00
FE00
FE00
FC00
7C00
7C00
3800
0000
0000
0000
0000
0000
0000
0000
0000
0000
0000
0000
0000
0000
0000
0300
0F80
1F80
1FC0
1FC0
1FC0
3FC0
3FC0
3FC0
1FC0
1FC0
1FC0
1FC0
1FC0
1FC0
1FC0
0F80
0F00
0E00
ENDCHAR
STARTCHAR 00EE
ENCODING 238
SWIDTH 324 0
DWIDTH 18 0
BBX 18 49 -2 1
BITMAP
003800
003C00
007C00
00FC00
01FE00
01FE00
03FF00
07FF00
0FFF80
1FFF80
1FBFC0
3F3FC0
7F1FC0
7E1FC0
7E0F80
FC0780
FC0780
F80300
700000
600000
000000
000000
000000
000000
000000
000000
000000
000000
000000
000000
018000
07C000
0FC000
0FE000
0FE000
0FE000
1FE000
1FE000
1FE000
0FE000
0FE000
0FE000
0FE000
0FE000
0FE000
0FE000
07C000
078000
070000
ENDCHAR
STARTCHAR 00EF
ENCODING 239
SWIDTH 324 0
DWIDTH 18 0
BBX 17 44 1 1
BITMAP
001F00
301F80
7E3F80
7E3F80
FE7F80
FE7F00
FE7F00
FE3F00
FE1E00
7C0800
380000
000000
000000
000000
000000
000000
000000
000000
000000
000000
000000
000000
000000
000000
000000
0C0000
3E0000
7E0000
7F0000
7F0000
7F0000
FF0000
FF0000
FF0000
7F0000
7F0000
7F0000
7F0000
7F0000
7F0000
7F0000
3E0000
3C0000
380000
ENDCHAR
STARTCHAR 00F1
ENCODING 241
SWIDTH 630 0
DWIDTH 35 0
BBX 28 44 1 1
BITMAP
0003C010
001FE010
003FF030
007FF070
00FFF8F0
00FFFFF0
01FFFFF0
01FFFFE0
01F8FFE0
01F07FC0
01F07F80
00E03F00
00001C00
00000000
00000000
00000000
00000000
00000000
00000000
000E0000
3C3F0000
3C7F0000
7CFF0000
7FFF8000
FFFF8000
FFFF8000
FFFF8000
FFFF8000
FFFF8000
FFDF8000
7FDF8000
7F9F8000
7F9FC000
7F9FC000
7F9FC000
3F8FE000
3F8FE000
3F8FE000
3F8FE000
3F0FC000
3F07C000
3E078000
1E060000
1C000000
ENDCHAR
STARTCHAR 00F2
ENCODING 242
SWIDTH 558 0
DWIDTH 31 0
BBX 18 49 0 0
BITMAP
008000
01C000
01E000
01F000
01F800
01FE00
00FF00
007F80
007F80
003FC0
001FC0
001FC0
000FC0
000F80
000F80
000700
000000
000000
000000
000000
000000
000000
000000
000000
000000
000000
001E00
007F00
00FF80
01FFC0
03FFC0
07FFC0
07FFC0
0FFFC0
1FFFC0
1FFFC0
3FEFC0
7F0F80
7E1F80
7E1F80
FE3F00
FFFE00
FFFE00
FFFC00
FFF800
7FF000
7FE000
7FC000
1F0000
ENDCHAR
STARTCHAR 00F3
ENCODING 243
SWIDTH 558 0
DWIDTH 31 0
BBX 18 48 0 0
BITMAP
000100
000300
000F00
001F00
003F00
007F00
01FE00
01FE00
03FC00
03F800
03F800
03F000
03F000
03E000
01E000
00C000
000000
000000
000000
000000
000000
000000
000000
000000
000000
001E00
007F00
00FF80
01FFC0
03FFC0
07FFC0
07FFC0
0FFFC0
1FFFC0
1FFFC0
3FEFC0
7F0F80
7E1F80
7E1F80
FE3F00
FFFE00
FFFE00
FFFC00
FFF800
7FF000
7FE000
7FC000
1F0000
ENDCHAR
STARTCHAR 00F4
ENCODING 244
SWIDTH 558 0
DWIDTH 31 0
BBX 22 48 0 0
BITMAP
000180
0003C0
0007C0
000FE0
000FE0
001FF0
003FF0
003FF8
007FF8
00FFF8
01FFFC
03F9FC
03F1FC
07F0FC
07E0FC
07E078
07C038
07C020
078000
070000
000000
000000
000000
000000
000000
001E00
007F00
00FF80
01FFC0
03FFC0
07FFC0
07FFC0
0FFFC0
1FFFC0
1FFFC0
3FEFC0
7F0F80
7E1F80
7E1F80
FE3F00
FFFE00
FFFE00
FFFC00
FFF800
7FF000
7FE000
7FC000
1F0000
ENDCHAR
STARTCHAR 00F5
ENCODING 245
SWIDTH 558 0
DWIDTH 31 0
BBX 28 45 0 0
BITMAP
0007C010
001FE030
003FF070
007FF070
00FFF9F0
01FFFFF0
01FFFFF0
01FFFFE0
01F8FFE0
01F07FC0
01E07F80
00E03F00
00001C00
00000000
00000000
00000000
00000000
00000000
00000000
00000000
00000000
00000000
001E0000
007F0000
00FF8000
01FFC000
03FFC000
07FFC000
07FFC000
0FFFC000
1FFFC000
1FFFC000
3FEFC000
7F0F8000
7E1F8000
7E1F8000
FE3F0000
FFFE0000
FFFE0000
FFFC0000
FFF80000
7FF00000
7FE00000
7FC00000
1F000000
ENDCHAR
STARTCHAR 00F6
ENCODING 246
SWIDTH 558 0
DWIDTH 31 0
BBX 23 43 0 0
BITMAP
00007C
00C07E
01F8FE
01F8FE
03F9FE
03F9FC
03F9FC
03F8FC
03F878
01F030
00F000
000000
000000
000000
000000
000000
000000
000000
000000
000000
001E00
007F00
00FF80
01FFC0
03FFC0
07FFC0
07FFC0
0FFFC0
1FFFC0
1FFFC0
3FEFC0
7F0F80
7E1F80
7E1F80
FE3F00
FFFE00
FFFE00
FFFC00
FFF800
7FF000
7FE000
7FC000
1F0000
ENDCHAR
STARTCHAR 00F7
ENCODING 247
SWIDTH 684 0
DWIDTH 38 0
BBX 36 32 1 0
BITMAP
0000700000
0000F80000
0000FC0000
0000FC0000
0001FC0000
0001FC0000
0001FC0000
0000F80000
0000F00000
38007FCFE0
7FFFFFFFE0
FFFFFFFFF0
FFFFFFFFF0
FFFFFFFFF0
FFFFFFFFE0
FFFFFFFFE0
FFFFFFFFE0
FFFFFFFFC0
7FF0000000
3C00000000
0000000000
0000000000
0001E00000
0001F00000
0003F00000
0003F00000
0003F00000
0003F00000
0003F00000
0001F00000
0000E00000
0000400000
ENDCHAR
STARTCHAR 00F9
ENCODING 249
SWIDTH 594 0
DWIDTH 33 0
BBX 23 48 0 0
BITMAP
018000
01C000
01E000
01F000
01F800
01FE00
00FF00
00FF80
007F80
003FC0
001FC0
001FC0
000FC0
000F80
000F80
000600
000000
000000
000000
000000
000000
000000
0F0000
0F8000
1F8000
1F8078
3F00FC
3F00FC
3F01F8
3F01F8
3F01F0
7F03F0
7E03F0
7E03F0
7E07F0
7E07F0
7E0FF0
7E1FF8
FE3FF8
FE7FF8
FFFFFC
7FFFFC
7FF9FE
7FF1FC
7FE0FC
7FC0F8
3F8078
1E0000
ENDCHAR
STARTCHAR 00FA
ENCODING 250
SWIDTH 594 0
DWIDTH 33 0
BBX 23 48 0 0
BITMAP
000080
000180
000380
000780
001F80
003F80
007F80
00FF00
01FE00
01FE00
01FC00
01F800
01F800
01F000
00F000
006000
000000
000000
000000
000000
000000
000000
0F0000
0F8000
1F8000
1F8078
3F00FC
3F00FC
3F01F8
3F01F8
3F01F0
7F03F0
7E03F0
7E03F0
7E07F0
7E07F0
7E0FF0
7E1FF8
FE3FF8
FE7FF8
FFFFFC
7FFFFC
7FF9FE
7FF1FC
7FE0FC
7FC0F8
3F8078
1E0000
ENDCHAR
STARTCHAR 00FB
ENCODING 251
SWIDTH 594 0
DWIDTH 33 0
BBX 23 48 0 0
BITMAP
0000C0
0001E0
0003F0
0003F0
0007F0
000FF8
001FF8
001FFC
003FFC
007FFE
00FFFE
01FCFE
01F8FE
01F87E
03F03E
03F03E
03E01C
03E000
03C000
018000
000000
000000
0F0000
0F8000
1F8000
1F8078
3F00FC
3F00FC
3F01F8
3F01F8
3F01F0
7F03F0
7E03F0
7E03F0
7E07F0
7E07F0
7E0FF0
7E1FF8
FE3FF8
FE7FF8
FFFFFC
7FFFFC
7FF9FE
7FF1FC
7FE0FC
7FC0F8
3F8078
1E0000
ENDCHAR
STARTCHAR 00FC
ENCODING 252
SWIDTH 594 0
DWIDTH 33 0
BBX 24 43 0 0
BITMAP
00001E
00603F
007C7F
00FE7F
01FC7F
01FC7F
01FC7E
01FC7E
01FC3C
00FC18
007800
000000
000000
000000
000000
000000
000000
0F0000
0F8000
1F8000
1F8078
3F00FC
3F00FC
3F01F8
3F01F8
3F01F0
7F03F0
7E03F0
7E03F0
7E07F0
7E07F0
7E0FF0
7E1FF8
FE3FF8
FE7FF8
FFFFFC
7FFFFC
7FF9FE
7FF1FC
7FE0FC
7FC0F8
3F8078
1E0000
ENDCHAR
STARTCHAR 00FD
ENCODING 253
SWIDTH 0 0
DWIDTH 0 0
BBX 0 0 0 0
BITMAP
ENDCHAR
STARTCHAR 0131
ENCODING 305
SWIDTH 198 0
DWIDTH 11 0
BBX 8 19 1 1
BITMAP
0C
3E
7E
7F
7F
7F
FF
FF
FF
7F
7F
7F
7F
7F
7F
7F
3E
3C
38
ENDCHAR
STARTCHAR 0141
ENCODING 321
SWIDTH 0 0
DWIDTH 0 0
BBX 0 0 0 0
BITMAP
ENDCHAR
STARTCHAR 0152
ENCODING 338
SWIDTH 990 0
DWIDTH 55 0
BBX 54 47 0 -5
BITMAP
0003F000000000
000FFC00000000
001FFF8000007C
003FFFF0001FFC
007FFFFFFFFFFC
00FFFFFFFFFFFC
00FFFFFFFFFFFC
01FFFFFFFFFFFC
03FFFFFFFFFFF8
03FFFFFFFFFFF8
07FE3FFFFFFFF0
07F81FFFFFFFE0
0FF01FFFFFF800
0FE003FFF80000
1FC0001F800000
1F80000F800000
3F80000F800000
3F00000F800000
3F00000F800000
7E00000F800000
7E00000FFFC000
7C00000FFFFC00
7C00000FFFFC00
7C00001FFFFC00
FC00001FFFFC00
F800003FFFFC00
F800003FFFF800
FC00007FFFF800
FC0000FFFFF000
FC0001FFFFE000
FC0003FFC00000
7E0007FF000000
7F000FF8000000
7F803FF0000000
7FE07FE0000000
3FFFFFFFFFFFE0
3FFFFFFFFFFFE0
3FFFFFFFFFFFE0
1FFFFFFFFFFFE0
0FFFFFFFFFFFE0
0FFFFFFFFFFFE0
03FFFFFFFFFFC0
01FFFFFFFFFFC0
001F0FFFFFFF80
00000FFFFFFF80
000007FFFFE000
00000300000000
ENDCHAR
STARTCHAR 0153
ENCODING 339
SWIDTH 738 0
DWIDTH 41 0
BBX 40 30 0 -1
BITMAP
0000400F80
0003F03FE0
001FF07FE0
00FFF8FFE0
01FFFFFFE0
03FFFFFFF0
07FFFFFFF0
0FFFFFFFF0
0FFFFFFFE0
1FFFFFFBE0
1FFFFFE7E0
3FFF7FDFE0
3FC07FFFC0
3F007FFFC0
7E00FFFF80
7E00FFFF00
7C00FFFE00
7C03FFF800
FE0FFFF000
7FFFFFE00E
7FFFFF801F
7FFFFFC1FF
7FFFFFFFFE
3FFFFFFFFE
3FFFFFFFFC
1FFFFFFFF8
1FFF7FFFF0
0FFC3FFFC0
03F81FFF00
000007F000
ENDCHAR
STARTCHAR 02C6
ENCODING 710
SWIDTH 324 0
DWIDTH 18 0
BBX 17 20 0 28
BITMAP
003800
007800
007C00
00FC00
01FC00
03FE00
03FE00
07FF00
0FFF00
1FFF80
3FBF80
3F3F80
7F1F80
7E1F80
FC0F80
FC0F80
F80700
F80000
F00000
600000
ENDCHAR
STARTCHAR 02DC
ENCODING 732
SWIDTH 450 0
DWIDTH 25 0
BBX 21 13 2 32
BITMAP
01E000
07F008
1FF818
3FF838
7FFC78
7FFFF8
FFFFF8
FFFFF8
FE7FF0
F83FE0
783FC0
701F80
000E00
ENDCHAR
STARTCHAR 2013
ENCODING 8211
SWIDTH 486 0
DWIDTH 27 0
BBX 24 13 1 10
BITMAP
0001FE
1E7FFE
7FFFFF
FFFFFF
FFFFFF
FFFFFF
FFFFFF
FFFFFF
7FFFFF
7FFFFE
7FFFC0
3FE000
1C0000
ENDCHAR
STARTCHAR 2014
ENCODING 8212
SWIDTH 738 0
DWIDTH 41 0
BBX 38 13 1 13
BITMAP
0000000038
0000003FFC
0000FFFFFC
3FFFFFFFFC
7FFFFFFFFC
FFFFFFFFFC
FFFFFFFFFC
FFFFFFFFF8
FFFFFFFFF8
7FFFFFFFF8
7FFFFF0000
3FFFC00000
1FF0000000
ENDCHAR
STARTCHAR 2018
ENCODING 8216
SWIDTH 180 0
DWIDTH 10 0
BBX 8 17 2 25
BITMAP
1C
3E
3F
7E
7E
FE
FE
FC
FC
F8
FC
FC
FC
F8
F8
F0
60
ENDCHAR
STARTCHAR 2019
ENCODING 8217
SWIDTH 162 0
DWIDTH 9 0
BBX 7 14 1 27
BITMAP
18
3C
FE
FE
FE
FE
FE
FE
FE
7C
7C
78
38
30
ENDCHAR
STARTCHAR 201C
ENCODING 8220
SWIDTH 6678 0
DWIDTH 371 0
BBX 20 21 1 22
BITMAP
01E000
03F0C0
07F1F0
07F3F0
0FF7F0
1FEFE0
1FEFE0
3FDFE0
3F9FC0
7FBF80
FF3F80
FF7F00
FF7F00
FF7F80
FF7FC0
FE7F80
FE7F80
FC7F80
F87F00
703F00
001E00
ENDCHAR
STARTCHAR 201D
ENCODING 8221
SWIDTH 6678 0
DWIDTH 371 0
BBX 16 17 1 27
BITMAP
000E
001E
1E3F
3F7F
7F7F
FFFF
FFFF
FFBF
FFBF
FF9F
7F8F
7F8F
1F8F
0F0E
0F0C
0708
0600
ENDCHAR
STARTCHAR 2020
ENCODING 8224
SWIDTH 288 0
DWIDTH 16 0
BBX 15 32 1 13
BITMAP
0700
0780
0FC0
0FC0
0FC0
0FC0
7FE0
FFF8
FFFC
FFFC
FFFC
FFFC
FFFC
FFFE
FFFE
7FFC
3FF8
07C0
07C0
07C0
07C0
07C0
03C0
03C0
03C0
03C0
03E0
03E0
03E0
01E0
01E0
00C0
ENDCHAR
STARTCHAR 2021
ENCODING 8225
SWIDTH 396 0
DWIDTH 22 0
BBX 21 37 1 5
BITMAP
00C000
01E000
01F000
01F880
0FFFE0
FFFFE0
FFFFE0
FFFFE0
FFFFE0
FFFFF0
FFFFE0
FFFFE0
7FFE00
7FF000
1DF000
00F000
00F000
00F000
03FFE0
3FFFF0
7FFFF0
7FFFF0
7FFFF0
7FFFF0
7FFFF8
7FFFF0
3FFFF0
3FFFE0
1FF800
03F800
01F800
01F800
01F000
01F000
00F000
00F000
006000
ENDCHAR
STARTCHAR 2030
ENCODING 8240
SWIDTH 630 0
DWIDTH 35 0
BBX 33 24 1 21
BITMAP
0000803000
07FFC03800
1FFFE07C00
1FFFF07C00
3FFFF07C00
7FFFF0FC00
7FFFF8FC00
FFE3F9FC00
FF01F9FC00
FF01FBFC00
7F81FFFE00
7FC1FFDE00
3FE1FFDE00
1FE1FF9E00
67F3FF9E00
F3F3FF8F00
FFF3DF8F00
FFF3DF0F00
FFF3CF0700
FFE3C70700
FFE3C20380
7FC1C00100
3F80C00000
0E00800000
ENDCHAR
STARTCHAR 2122
ENCODING 8482
SWIDTH 702 0
DWIDTH 39 0
BBX 37 24 1 20
BITMAP
0000000300
0000000380
7F003807C0
FFFFFC07C0
FFFFFE07C0
FFFFFE07C0
FFFFFF07C0
FFFFFF0FC0
FFFFFF0FC0
7FFFFFBFC0
33F07FFFC0
03E07FFFC0
03E07FFFC0
03E03FFFC0
03E03FFFC0
03E03FFFC0
03E03DFFE0
03C03CF9E0
07C03E71F0
03C03E00F0
03C03E00F8
03801E0078
03801E0030
0100040000
ENDCHAR
STARTCHAR 2260
ENCODING 8800
SWIDTH 396 0
DWIDTH 22 0
BBX 21 36 1 -1
BITMAP
000180
0003C0
0003E0
0007E0
0007E0
0007E0
000FE0
003FE0
1FFFE0
3FFFF0
3FFFF0
3FFFF0
3FFFF0
3FFFF8
3FFFF8
3FFFF0
1FFFF0
0FFC00
07F980
7FFFC0
FFFFC0
FFFFC0
FFFFE0
FFFFE0
FFFFE0
7FFFC0
3FFFC0
3FE000
3F0000
3E0000
3C0000
3C0000
3C0000
3C0000
1C0000
040000
ENDCHAR
STARTCHAR 2264
ENCODING 8804
SWIDTH 414 0
DWIDTH 23 0
BBX 19 35 1 0
BITMAP
000E00
001F00
003F80
003F80
007F00
00FF00
01FE00
03FC00
0FF800
1FF000
3FE000
7FC000
7F8000
7FE000
7FF000
7FFE00
7FFF00
3FFF00
1FFF00
07FE00
03FE00
00FC00
003000
000000
000000
3FFFC0
7FFFE0
FFFFE0
FFFFE0
FFFFE0
FFFFE0
FFFFE0
7FFFE0
7FFFC0
3FFFC0
ENDCHAR
STARTCHAR 2265
ENCODING 8805
SWIDTH 378 0
DWIDTH 21 0
BBX 20 34 0 0
BITMAP
060000
0F0000
1F8000
3FC000
3FE000
3FF000
3FFC00
3FFF00
3FFF80
1FFFC0
0FFFE0
03FFE0
01FFC0
00FFC0
00FF80
01FF00
03FC00
07F800
0FF000
1FE000
3F8000
3F0000
3E0000
1C0000
3FFFE0
7FFFE0
7FFFE0
FFFFF0
FFFFF0
FFFFF0
7FFFE0
7FFFE0
3FFFE0
1FFFE0
ENDCHAR
STARTCHAR F000
ENCODING 61440
SWIDTH 630 0
DWIDTH 35 0
BBX 25 30 9 2
BITMAP
00000F00
00007F80
0000FF80
0003FF80
0007FF80
000FFF80
001FFF00
003FFF00
003F3E00
007E1C00
18FFF000
3FFFFF00
7FFFFF00
FFFFFE00
FFFFFC00
FFFFF800
FFFFF000
FFFC0000
FFF80000
7FF80000
03FC0000
03FF8000
03FFFE00
03FFFF00
01FFFF00
01FFFF00
00FFFE00
007FFC00
0007FC00
00003800
ENDCHAR
ENDFONT
